<?xml version="1.0" encoding="UTF-8" standalone="no"?>
<!DOCTYPE svg PUBLIC "-//W3C//DTD SVG 1.1//EN"
 "http://www.w3.org/Graphics/SVG/1.1/DTD/svg11.dtd">
<!-- Generated by graphviz version 8.1.0 (20230707.0739)
 -->
<!-- Pages: 1 -->
<svg width="742pt" height="241pt"
 viewBox="0.00 0.00 741.73 240.50" xmlns="http://www.w3.org/2000/svg" xmlns:xlink="http://www.w3.org/1999/xlink">
<g id="graph0" class="graph" transform="scale(1 1) rotate(0) translate(4 236.5)">
<polygon fill="white" stroke="none" points="-4,4 -4,-236.5 737.73,-236.5 737.73,4 -4,4"/>
<!-- folder#viewer -->
<g id="node1" class="node">
<title>folder#viewer</title>
<ellipse fill="none" stroke="black" cx="64.33" cy="-126" rx="62.61" ry="18"/>
<text text-anchor="middle" x="64.33" y="-120.95" font-family="Times,serif" font-size="14.00">folder#viewer</text>
</g>
<!-- document#viewer -->
<g id="node2" class="node">
<title>document#viewer</title>
<ellipse fill="magenta" stroke="magenta" cx="113.33" cy="-214.5" rx="77.45" ry="18"/>
<text text-anchor="middle" x="113.33" y="-209.45" font-family="Times,serif" font-size="14.00">document#viewer</text>
</g>
<!-- folder#viewer&#45;&gt;document#viewer -->
<g id="edge1" class="edge">
<title>folder#viewer&#45;&gt;document#viewer</title>
<path fill="none" stroke="black" d="M74.01,-144.09C80.88,-156.21 90.23,-172.73 98.1,-186.61"/>
<polygon fill="black" stroke="black" points="95.53,-188.17 103.5,-195.15 101.62,-184.72 95.53,-188.17"/>
<text text-anchor="middle" x="96.7" y="-165.2" font-family="Times,serif" font-size="14.00">9</text>
<text text-anchor="middle" x="51.75" y="-182.85" font-family="Times,serif" font-size="14.00">(document#parent)</text>
</g>
<!-- folder -->
<g id="node3" class="node">
<title>folder</title>
<ellipse fill="none" stroke="black" cx="273.33" cy="-18" rx="32.93" ry="18"/>
<text text-anchor="middle" x="273.33" y="-12.95" font-family="Times,serif" font-size="14.00">folder</text>
</g>
<!-- document#parent -->
<g id="node4" class="node">
<title>document#parent</title>
<ellipse fill="none" stroke="black" cx="658.33" cy="-126" rx="75.41" ry="18"/>
<text text-anchor="middle" x="658.33" y="-120.95" font-family="Times,serif" font-size="14.00">document#parent</text>
</g>
<!-- folder&#45;&gt;document#parent -->
<g id="edge2" class="edge">
<title>folder&#45;&gt;document#parent</title>
<path fill="none" stroke="black" d="M305.94,-20.99C370.64,-25.26 512.89,-36.39 558.33,-54 586.05,-64.74 613.27,-84.89 632.3,-100.98"/>
<polygon fill="black" stroke="black" points="629.59,-104.13 639.44,-108.04 634.18,-98.85 629.59,-104.13"/>
<text text-anchor="middle" x="620.7" y="-66.95" font-family="Times,serif" font-size="14.00">2</text>
</g>
<!-- user -->
<g id="node5" class="node">
<title>user</title>
<ellipse fill="cyan" stroke="cyan" cx="113.33" cy="-18" rx="27" ry="18"/>
<text text-anchor="middle" x="113.33" y="-12.95" font-family="Times,serif" font-size="14.00">user</text>
</g>
<!-- user&#45;&gt;folder#viewer -->
<g id="edge5" class="edge">
<title>user&#45;&gt;folder#viewer</title>
<path fill="none" stroke="black" d="M105.67,-35.56C97.96,-52.25 85.93,-78.26 76.84,-97.94"/>
<polygon fill="black" stroke="black" points="73.27,-96.31 72.26,-106.85 79.63,-99.24 73.27,-96.31"/>
<text text-anchor="middle" x="103.08" y="-66.95" font-family="Times,serif" font-size="14.00">11</text>
</g>
<!-- user&#45;&gt;document#viewer -->
<g id="edge4" class="edge">
<title>user&#45;&gt;document#viewer</title>
<path fill="none" stroke="black" d="M120.02,-35.54C128.86,-59.43 142.61,-105.01 136.33,-144 134.04,-158.17 129.3,-173.36 124.71,-185.92"/>
<polygon fill="black" stroke="black" points="121.09,-184.59 120.78,-195.18 127.63,-187.09 121.09,-184.59"/>
<text text-anchor="middle" x="141.7" y="-120.95" font-family="Times,serif" font-size="14.00">4</text>
</g>
<!-- document#editor -->
<g id="node6" class="node">
<title>document#editor</title>
<ellipse fill="none" stroke="black" cx="262.33" cy="-126" rx="73.87" ry="18"/>
<text text-anchor="middle" x="262.33" y="-120.95" font-family="Times,serif" font-size="14.00">document#editor</text>
</g>
<!-- user&#45;&gt;document#editor -->
<g id="edge3" class="edge">
<title>user&#45;&gt;document#editor</title>
<path fill="none" stroke="black" d="M131.3,-31.79C155.78,-49.2 200.02,-80.67 230.26,-102.19"/>
<polygon fill="black" stroke="black" points="227.98,-105.57 238.16,-108.52 232.04,-99.87 227.98,-105.57"/>
<text text-anchor="middle" x="213.7" y="-66.95" font-family="Times,serif" font-size="14.00">1</text>
</g>
<!-- group#member -->
<g id="node7" class="node">
<title>group#member</title>
<ellipse fill="none" stroke="black" cx="422.33" cy="-126" rx="68.24" ry="18"/>
<text text-anchor="middle" x="422.33" y="-120.95" font-family="Times,serif" font-size="14.00">group#member</text>
</g>
<!-- user&#45;&gt;group#member -->
<g id="edge6" class="edge">
<title>user&#45;&gt;group#member</title>
<path fill="none" stroke="black" d="M137.41,-26.61C159.34,-33.58 192.58,-44.27 221.33,-54 273.25,-71.58 332.37,-92.58 372.98,-107.16"/>
<polygon fill="black" stroke="black" points="371.55,-110.73 382.15,-110.82 373.92,-104.14 371.55,-110.73"/>
<text text-anchor="middle" x="328.08" y="-66.95" font-family="Times,serif" font-size="14.00">14</text>
</g>
<!-- document#editor&#45;&gt;document#viewer -->
<g id="edge9" class="edge">
<title>document#editor&#45;&gt;document#viewer</title>
<path fill="none" stroke="black" d="M234.65,-143.07C210.89,-156.86 176.44,-176.86 150.32,-192.02"/>
<polygon fill="black" stroke="black" points="149,-189.32 142.11,-197.37 152.51,-195.38 149,-189.32"/>
<text text-anchor="middle" x="204.7" y="-165.2" font-family="Times,serif" font-size="14.00">8</text>
</g>
<!-- group#member&#45;&gt;document#viewer -->
<g id="edge8" class="edge">
<title>group#member&#45;&gt;document#viewer</title>
<path fill="none" stroke="black" d="M376.73,-139.76C322.33,-154.99 231.28,-180.48 171.77,-197.14"/>
<polygon fill="black" stroke="black" points="171.09,-193.98 162.4,-200.04 172.97,-200.72 171.09,-193.98"/>
<text text-anchor="middle" x="299.7" y="-165.2" font-family="Times,serif" font-size="14.00">6</text>
</g>
<!-- group#member&#45;&gt;group#member -->
<g id="edge7" class="edge">
<title>group#member&#45;&gt;group#member</title>
<path fill="none" stroke="black" d="M483.96,-117.89C498.15,-118.59 508.57,-121.29 508.57,-126 508.57,-129.39 503.18,-131.73 494.89,-133.05"/>
<polygon fill="black" stroke="black" points="494.57,-129.66 484.96,-134.11 495.25,-136.63 494.57,-129.66"/>
<text text-anchor="middle" x="515.32" y="-120.95" font-family="Times,serif" font-size="14.00">15</text>
</g>
<!-- user or user:* -->
<g id="node8" class="node">
<title>user or user:*</title>
<ellipse fill="cyan" stroke="cyan" cx="487.33" cy="-72" rx="61.59" ry="18"/>
<text text-anchor="middle" x="487.33" y="-66.95" font-family="Times,serif" font-size="14.00">user or user:*</text>
</g>
<!-- user or user:*&#45;&gt;document#viewer -->
<g id="edge10" class="edge">
<title>user or user:*&#45;&gt;document#viewer</title>
<path fill="none" stroke="black" d="M514.48,-88.44C521.23,-93.71 527.6,-100.26 531.33,-108 538.28,-122.41 541.67,-131.79 531.33,-144 489.84,-192.95 310.81,-207.46 200.94,-211.74"/>
<polygon fill="black" stroke="black" points="201.07,-208.27 191.21,-212.13 201.33,-215.26 201.07,-208.27"/>
<text text-anchor="middle" x="540.7" y="-120.95" font-family="Times,serif" font-size="14.00">5</text>
</g>
</g>
</svg>
