<?xml version="1.0" encoding="UTF-8" standalone="no"?>
<!DOCTYPE svg PUBLIC "-//W3C//DTD SVG 1.1//EN"
 "http://www.w3.org/Graphics/SVG/1.1/DTD/svg11.dtd">
<!-- Generated by graphviz version 8.1.0 (20230707.0739)
 -->
<!-- Pages: 1 -->
<svg width="740pt" height="241pt"
 viewBox="0.00 0.00 739.65 240.50" xmlns="http://www.w3.org/2000/svg" xmlns:xlink="http://www.w3.org/1999/xlink">
<g id="graph0" class="graph" transform="scale(1 1) rotate(0) translate(4 236.5)">
<polygon fill="white" stroke="none" points="-4,4 -4,-236.5 735.65,-236.5 735.65,4 -4,4"/>
<!-- group#member -->
<g id="node1" class="node">
<title>group#member</title>
<ellipse fill="cyan" stroke="cyan" cx="68.24" cy="-126" rx="68.24" ry="18"/>
<text text-anchor="middle" x="68.24" y="-120.95" font-family="Times,serif" font-size="14.00">group#member</text>
</g>
<!-- group#member&#45;&gt;group#member -->
<g id="edge2" class="edge">
<title>group#member&#45;&gt;group#member</title>
<path fill="none" stroke="black" d="M129.87,-117.89C144.06,-118.59 154.48,-121.29 154.48,-126 154.48,-129.39 149.1,-131.73 140.8,-133.05"/>
<polygon fill="black" stroke="black" points="140.48,-129.66 130.87,-134.11 141.16,-136.63 140.48,-129.66"/>
<text text-anchor="middle" x="161.23" y="-120.95" font-family="Times,serif" font-size="14.00">15</text>
</g>
<!-- document#viewer -->
<g id="node2" class="node">
<title>document#viewer</title>
<ellipse fill="magenta" stroke="magenta" cx="136.24" cy="-214.5" rx="77.45" ry="18"/>
<text text-anchor="middle" x="136.24" y="-209.45" font-family="Times,serif" font-size="14.00">document#viewer</text>
</g>
<!-- group#member&#45;&gt;document#viewer -->
<g id="edge1" class="edge">
<title>group#member&#45;&gt;document#viewer</title>
<path fill="none" stroke="black" d="M81.68,-144.09C91.55,-156.65 105.13,-173.92 116.27,-188.09"/>
<polygon fill="black" stroke="black" points="113.9,-189.75 122.83,-195.45 119.41,-185.42 113.9,-189.75"/>
<text text-anchor="middle" x="112.62" y="-165.2" font-family="Times,serif" font-size="14.00">6</text>
</g>
<!-- document#parent -->
<g id="node3" class="node">
<title>document#parent</title>
<ellipse fill="none" stroke="black" cx="656.24" cy="-126" rx="75.41" ry="18"/>
<text text-anchor="middle" x="656.24" y="-120.95" font-family="Times,serif" font-size="14.00">document#parent</text>
</g>
<!-- user -->
<g id="node4" class="node">
<title>user</title>
<ellipse fill="none" stroke="black" cx="135.24" cy="-18" rx="27" ry="18"/>
<text text-anchor="middle" x="135.24" y="-12.95" font-family="Times,serif" font-size="14.00">user</text>
</g>
<!-- user&#45;&gt;group#member -->
<g id="edge6" class="edge">
<title>user&#45;&gt;group#member</title>
<path fill="none" stroke="black" d="M125.07,-35.1C114.37,-52.02 97.37,-78.91 84.75,-98.87"/>
<polygon fill="black" stroke="black" points="81.34,-96.72 78.96,-107.05 87.26,-100.46 81.34,-96.72"/>
<text text-anchor="middle" x="118.99" y="-66.95" font-family="Times,serif" font-size="14.00">14</text>
</g>
<!-- user&#45;&gt;document#viewer -->
<g id="edge4" class="edge">
<title>user&#45;&gt;document#viewer</title>
<path fill="none" stroke="black" d="M146.75,-34.61C162.64,-58.09 188.15,-104.03 177.24,-144 173.01,-159.51 164.33,-175.08 156.05,-187.54"/>
<polygon fill="black" stroke="black" points="152.71,-185.2 149.87,-195.41 158.46,-189.2 152.71,-185.2"/>
<text text-anchor="middle" x="183.62" y="-120.95" font-family="Times,serif" font-size="14.00">4</text>
</g>
<!-- document#editor -->
<g id="node5" class="node">
<title>document#editor</title>
<ellipse fill="none" stroke="black" cx="303.24" cy="-126" rx="73.87" ry="18"/>
<text text-anchor="middle" x="303.24" y="-120.95" font-family="Times,serif" font-size="14.00">document#editor</text>
</g>
<!-- user&#45;&gt;document#editor -->
<g id="edge3" class="edge">
<title>user&#45;&gt;document#editor</title>
<path fill="none" stroke="black" d="M154.44,-30.96C165.26,-37.71 179.02,-46.3 191.24,-54 217.32,-70.42 246.76,-89.08 268.9,-103.15"/>
<polygon fill="black" stroke="black" points="266.6,-106.47 276.92,-108.88 270.35,-100.56 266.6,-106.47"/>
<text text-anchor="middle" x="250.62" y="-66.95" font-family="Times,serif" font-size="14.00">1</text>
</g>
<!-- folder#viewer -->
<g id="node6" class="node">
<title>folder#viewer</title>
<ellipse fill="none" stroke="black" cx="457.24" cy="-126" rx="62.61" ry="18"/>
<text text-anchor="middle" x="457.24" y="-120.95" font-family="Times,serif" font-size="14.00">folder#viewer</text>
</g>
<!-- user&#45;&gt;folder#viewer -->
<g id="edge5" class="edge">
<title>user&#45;&gt;folder#viewer</title>
<path fill="none" stroke="black" d="M159.89,-25.5C184.82,-32.2 224.41,-43.16 258.24,-54 310.67,-70.79 370.03,-92.3 410.16,-107.22"/>
<polygon fill="black" stroke="black" points="408.85,-110.84 419.44,-111.06 411.3,-104.28 408.85,-110.84"/>
<text text-anchor="middle" x="368.99" y="-66.95" font-family="Times,serif" font-size="14.00">11</text>
</g>
<!-- document#editor&#45;&gt;document#viewer -->
<g id="edge9" class="edge">
<title>document#editor&#45;&gt;document#viewer</title>
<path fill="none" stroke="black" d="M273,-142.66C246.06,-156.62 206.43,-177.15 176.76,-192.52"/>
<polygon fill="black" stroke="black" points="175.38,-189.81 168.11,-197.51 178.6,-196.02 175.38,-189.81"/>
<text text-anchor="middle" x="238.62" y="-165.2" font-family="Times,serif" font-size="14.00">8</text>
</g>
<!-- folder#viewer&#45;&gt;document#viewer -->
<g id="edge8" class="edge">
<title>folder#viewer&#45;&gt;document#viewer</title>
<path fill="none" stroke="black" d="M412.61,-139.03C356.18,-154.23 258.84,-180.46 196.03,-197.39"/>
<polygon fill="black" stroke="black" points="195.24,-194.25 186.49,-200.23 197.06,-201.01 195.24,-194.25"/>
<text text-anchor="middle" x="329.62" y="-165.2" font-family="Times,serif" font-size="14.00">9</text>
<text text-anchor="middle" x="237.24" y="-186.93" font-family="Times,serif" font-size="14.00">(document#parent)</text>
</g>
<!-- folder -->
<g id="node7" class="node">
<title>folder</title>
<ellipse fill="none" stroke="black" cx="295.24" cy="-18" rx="32.93" ry="18"/>
<text text-anchor="middle" x="295.24" y="-12.95" font-family="Times,serif" font-size="14.00">folder</text>
</g>
<!-- folder&#45;&gt;document#parent -->
<g id="edge7" class="edge">
<title>folder&#45;&gt;document#parent</title>
<path fill="none" stroke="black" d="M327.81,-20.71C391.64,-24.46 530.77,-34.63 574.24,-54 597.82,-64.51 619.67,-84.13 634.87,-100.08"/>
<polygon fill="black" stroke="black" points="631.84,-102.04 641.19,-107.02 636.98,-97.3 631.84,-102.04"/>
<text text-anchor="middle" x="626.62" y="-66.95" font-family="Times,serif" font-size="14.00">2</text>
</g>
<!-- user or user:* -->
<g id="node8" class="node">
<title>user or user:*</title>
<ellipse fill="none" stroke="black" cx="503.24" cy="-72" rx="61.59" ry="18"/>
<text text-anchor="middle" x="503.24" y="-66.95" font-family="Times,serif" font-size="14.00">user or user:*</text>
</g>
<!-- user or user:*&#45;&gt;document#viewer -->
<g id="edge10" class="edge">
<title>user or user:*&#45;&gt;document#viewer</title>
<path fill="none" stroke="black" d="M518.06,-89.85C529.85,-105.36 542.38,-128.29 529.24,-144 491.09,-189.62 327.37,-205.31 223.65,-210.7"/>
<polygon fill="black" stroke="black" points="223.69,-207.24 213.88,-211.23 224.04,-214.23 223.69,-207.24"/>
<text text-anchor="middle" x="537.62" y="-120.95" font-family="Times,serif" font-size="14.00">5</text>
</g>
</g>
</svg>
