<?xml version="1.0" encoding="UTF-8" standalone="no"?><!DOCTYPE svg PUBLIC "-//W3C//DTD SVG 1.1//EN" "http://www.w3.org/Graphics/SVG/1.1/DTD/svg11.dtd"><!-- Generated by graphviz version 2.40.1 (20161225.0304)
 --><!-- Title: G Pages: 1 --><svg xmlns="http://www.w3.org/2000/svg" xmlns:xlink="http://www.w3.org/1999/xlink" width="696pt" height="188pt" viewBox="0.00 0.00 695.73 188.00">
<g id="graph0" class="graph" transform="scale(1 1) rotate(0) translate(4 184)">
<title>G</title>
<polygon fill="#ffffff" stroke="transparent" points="-4,4 -4,-184 691.7276,-184 691.7276,4 -4,4"/>
<!-- group#member -->
<g id="node1" class="node">
<title>group#member</title>
<ellipse fill="#add8e6" stroke="#000000" cx="304.0934" cy="-90" rx="70.0693" ry="18"/>
<text text-anchor="middle" x="304.0934" y="-85.8" font-family="Times,serif" font-size="14.00" fill="#000000">group#member</text>
</g>
<!-- group#member&#45;&gt;group#member -->
<g id="edge2" class="edge">
<title>group#member-&gt;group#member</title>
<path fill="none" stroke="#ff0000" d="M351.6392,-76.7381C373.2995,-75.3841 392.1281,-79.8047 392.1281,-90 392.1281,-98.5226 378.9708,-103.01 362.0008,-103.462"/>
<polygon fill="#ff0000" stroke="#ff0000" points="361.705,-99.9557 351.6392,-103.2619 361.5697,-106.9544 361.705,-99.9557"/>
</g>
<!-- document#viewer -->
<g id="node3" class="node">
<title>document#viewer</title>
<ellipse fill="#ff00ff" stroke="#000000" cx="420.0934" cy="-162" rx="80.4403" ry="18"/>
<text text-anchor="middle" x="420.0934" y="-157.8" font-family="Times,serif" font-size="14.00" fill="#000000">document#viewer</text>
</g>
<!-- group#member&#45;&gt;document#viewer -->
<g id="edge3" class="edge">
<title>group#member-&gt;document#viewer</title>
<path fill="none" stroke="#ff0000" d="M330.9977,-106.6992C346.7281,-116.4629 366.791,-128.9158 383.8941,-139.5315"/>
<polygon fill="#ff0000" stroke="#ff0000" points="382.1873,-142.5914 392.5295,-144.8914 385.8789,-136.6439 382.1873,-142.5914"/>
</g>
<!-- folder#viewer -->
<g id="node2" class="node">
<title>folder#viewer</title>
<ellipse fill="none" stroke="#000000" cx="151.0934" cy="-90" rx="65.3878" ry="18"/>
<text text-anchor="middle" x="151.0934" y="-85.8" font-family="Times,serif" font-size="14.00" fill="#000000">folder#viewer</text>
</g>
<!-- folder#viewer&#45;&gt;document#viewer -->
<g id="edge8" class="edge">
<title>folder#viewer-&gt;document#viewer</title>
<path fill="none" stroke="#000000" stroke-dasharray="5,2" d="M197.9497,-102.5414C242.4506,-114.4525 309.6239,-132.4319 358.4505,-145.5008"/>
<polygon fill="#000000" stroke="#000000" points="357.7024,-148.9237 368.2673,-148.1283 359.5124,-142.1617 357.7024,-148.9237"/>
</g>
<!-- document#parent -->
<g id="node7" class="node">
<title>document#parent</title>
<ellipse fill="none" stroke="#000000" cx="92.0934" cy="-162" rx="78.154" ry="18"/>
<text text-anchor="middle" x="92.0934" y="-157.8" font-family="Times,serif" font-size="14.00" fill="#000000">document#parent</text>
</g>
<!-- folder#viewer&#45;&gt;document#parent -->
<g id="edge10" class="edge">
<title>folder#viewer-&gt;document#parent</title>
<path fill="none" stroke="#000000" d="M136.5092,-107.7978C129.4886,-116.3652 120.9386,-126.7991 113.2219,-136.2161"/>
<polygon fill="#000000" stroke="#000000" points="110.3455,-134.2043 106.7144,-144.1575 115.7598,-138.641 110.3455,-134.2043"/>
</g>
<!-- user -->
<g id="node4" class="node">
<title>user</title>
<ellipse fill="none" stroke="#000000" cx="362.0934" cy="-18" rx="27.2447" ry="18"/>
<text text-anchor="middle" x="362.0934" y="-13.8" font-family="Times,serif" font-size="14.00" fill="#000000">user</text>
</g>
<!-- user&#45;&gt;group#member -->
<g id="edge1" class="edge">
<title>user-&gt;group#member</title>
<path fill="none" stroke="#000000" d="M349.2213,-33.9791C342.0059,-42.9363 332.8373,-54.318 324.6517,-64.4794"/>
<polygon fill="#000000" stroke="#000000" points="321.9015,-62.3143 318.3538,-72.2975 327.3528,-66.7056 321.9015,-62.3143"/>
</g>
<!-- user&#45;&gt;folder#viewer -->
<g id="edge7" class="edge">
<title>user-&gt;folder#viewer</title>
<path fill="none" stroke="#000000" d="M337.889,-26.2593C304.8802,-37.523 244.9307,-57.9797 201.84,-72.6836"/>
<polygon fill="#000000" stroke="#000000" points="200.7052,-69.3726 192.3714,-75.9146 202.9659,-75.9975 200.7052,-69.3726"/>
</g>
<!-- user&#45;&gt;document#viewer -->
<g id="edge5" class="edge">
<title>user-&gt;document#viewer</title>
<path fill="none" stroke="#000000" d="M376.3302,-33.9101C384.7382,-44.121 394.914,-58.0417 401.0934,-72 409.7938,-91.6528 414.5975,-115.5166 417.1971,-133.7318"/>
<polygon fill="#000000" stroke="#000000" points="413.736,-134.259 418.4857,-143.7295 420.6785,-133.3641 413.736,-134.259"/>
</g>
<!-- document#editor -->
<g id="node5" class="node">
<title>document#editor</title>
<ellipse fill="none" stroke="#000000" cx="524.0934" cy="-90" rx="76.4478" ry="18"/>
<text text-anchor="middle" x="524.0934" y="-85.8" font-family="Times,serif" font-size="14.00" fill="#000000">document#editor</text>
</g>
<!-- user&#45;&gt;document#editor -->
<g id="edge4" class="edge">
<title>user-&gt;document#editor</title>
<path fill="none" stroke="#000000" d="M384.9605,-28.1631C409.3051,-38.983 448.4571,-56.3839 479.0362,-69.9746"/>
<polygon fill="#000000" stroke="#000000" points="477.6656,-73.1955 488.2252,-74.0586 480.5086,-66.7988 477.6656,-73.1955"/>
</g>
<!-- document#editor&#45;&gt;document#viewer -->
<g id="edge6" class="edge">
<title>document#editor-&gt;document#viewer</title>
<path fill="none" stroke="#000000" stroke-dasharray="1,5" d="M499.4469,-107.063C485.6888,-116.5878 468.3593,-128.5851 453.4073,-138.9365"/>
<polygon fill="#000000" stroke="#000000" points="451.1532,-136.2401 444.9235,-144.81 455.1377,-141.9955 451.1532,-136.2401"/>
</g>
<!-- folder -->
<g id="node6" class="node">
<title>folder</title>
<ellipse fill="none" stroke="#000000" cx="34.0934" cy="-90" rx="34.1871" ry="18"/>
<text text-anchor="middle" x="34.0934" y="-85.8" font-family="Times,serif" font-size="14.00" fill="#000000">folder</text>
</g>
<!-- folder&#45;&gt;document#parent -->
<g id="edge9" class="edge">
<title>folder-&gt;document#parent</title>
<path fill="none" stroke="#000000" d="M47.5456,-106.6992C54.6045,-115.462 63.4083,-126.3909 71.3211,-136.2137"/>
<polygon fill="#000000" stroke="#000000" points="68.7015,-138.541 77.7005,-144.1329 74.1528,-134.1497 68.7015,-138.541"/>
</g>
<!-- user:* -->
<g id="node8" class="node">
<title>user:*</title>
<ellipse fill="none" stroke="#000000" cx="653.0934" cy="-90" rx="34.769" ry="18"/>
<text text-anchor="middle" x="653.0934" y="-85.8" font-family="Times,serif" font-size="14.00" fill="#000000">user:*</text>
</g>
<!-- user:*&#45;&gt;document#viewer -->
<g id="edge11" class="edge">
<title>user:*-&gt;document#viewer</title>
<path fill="none" stroke="#000000" d="M626.2798,-101.5163C620.646,-103.7814 614.7088,-106.0558 609.0934,-108 567.8268,-122.2876 520.5898,-135.7845 483.663,-145.711"/>
<polygon fill="#000000" stroke="#000000" points="482.2941,-142.4538 473.5346,-148.4138 484.099,-149.2171 482.2941,-142.4538"/>
</g>
</g>
</svg>