<?xml version="1.0" encoding="UTF-8" standalone="no"?><!DOCTYPE svg PUBLIC "-//W3C//DTD SVG 1.1//EN" "http://www.w3.org/Graphics/SVG/1.1/DTD/svg11.dtd"><!-- Generated by graphviz version 2.40.1 (20161225.0304)
 --><!-- Title: G Pages: 1 --><svg xmlns="http://www.w3.org/2000/svg" xmlns:xlink="http://www.w3.org/1999/xlink" width="188pt" height="222pt" viewBox="0.00 0.00 188.25 221.60">
<g id="graph0" class="graph" transform="scale(1 1) rotate(0) translate(4 217.6)">
<title>G</title>
<polygon fill="#ffffff" stroke="transparent" points="-4,4 -4,-217.6 184.2545,-217.6 184.2545,4 -4,4"/>
<!-- user -->
<g id="node1" class="node">
<title>user</title>
<ellipse fill="none" stroke="#000000" cx="123.0346" cy="-18" rx="27.2447" ry="18"/>
<text text-anchor="middle" x="123.0346" y="-13.8" font-family="Times,serif" font-size="14.00" fill="#000000">user</text>
</g>
<!-- group#member -->
<g id="node2" class="node">
<title>group#member</title>
<ellipse fill="none" stroke="#000000" cx="70.0346" cy="-106.8" rx="70.0693" ry="18"/>
<text text-anchor="middle" x="70.0346" y="-102.6" font-family="Times,serif" font-size="14.00" fill="#000000">group#member</text>
</g>
<!-- user&#45;&gt;group#member -->
<g id="edge1" class="edge">
<title>user-&gt;group#member</title>
<path fill="none" stroke="#ff0000" d="M112.8157,-35.1215C105.1931,-47.8929 94.6363,-65.5807 85.9169,-80.1897"/>
<polygon fill="#ff0000" stroke="#ff0000" points="82.8876,-78.436 80.768,-88.8166 88.8985,-82.0235 82.8876,-78.436"/>
<text text-anchor="middle" x="104.5346" y="-58.2" font-family="Times,serif" font-size="14.00" fill="#000000">1</text>
</g>
<!-- document#viewer -->
<g id="node3" class="node">
<title>document#viewer</title>
<ellipse fill="none" stroke="#000000" cx="100.0346" cy="-195.6" rx="80.4403" ry="18"/>
<text text-anchor="middle" x="100.0346" y="-191.4" font-family="Times,serif" font-size="14.00" fill="#000000">document#viewer</text>
</g>
<!-- user&#45;&gt;document#viewer -->
<g id="edge3" class="edge">
<title>user-&gt;document#viewer</title>
<path fill="none" stroke="#ff0000" d="M132.7559,-34.8304C143.7189,-56.0279 158.8191,-93.4692 149.0346,-124.8 143.8806,-141.3038 133.3813,-157.3471 123.4189,-169.977"/>
<polygon fill="#ff0000" stroke="#ff0000" points="120.6688,-167.8107 117.0113,-177.7543 126.0714,-172.2618 120.6688,-167.8107"/>
<text text-anchor="middle" x="155.5346" y="-102.6" font-family="Times,serif" font-size="14.00" fill="#000000">3</text>
</g>
<!-- group#member&#45;&gt;document#viewer -->
<g id="edge4" class="edge">
<title>group#member-&gt;document#viewer</title>
<path fill="none" stroke="#000000" d="M68.5112,-124.9206C68.2534,-135.3608 69.0034,-148.5608 73.0346,-159.6 74.2506,-162.9298 75.8838,-166.2103 77.748,-169.3542"/>
<polygon fill="#000000" stroke="#000000" points="74.9516,-171.4666 83.4594,-177.7807 80.746,-167.5392 74.9516,-171.4666"/>
<text text-anchor="middle" x="76.5346" y="-147" font-family="Times,serif" font-size="14.00" fill="#000000">4</text>
</g>
<!-- document#viewer&#45;&gt;group#member -->
<g id="edge2" class="edge">
<title>document#viewer-&gt;group#member</title>
<path fill="none" stroke="#000000" d="M93.8698,-177.3519C89.6875,-164.9725 84.0815,-148.3786 79.357,-134.3941"/>
<polygon fill="#000000" stroke="#000000" points="82.6222,-133.1237 76.1056,-124.77 75.9904,-135.3642 82.6222,-133.1237"/>
<text text-anchor="middle" x="91.5346" y="-147" font-family="Times,serif" font-size="14.00" fill="#000000">2</text>
</g>
</g>
</svg>