<?xml version="1.0" encoding="UTF-8" standalone="no"?>
<!DOCTYPE svg PUBLIC "-//W3C//DTD SVG 1.1//EN"
 "http://www.w3.org/Graphics/SVG/1.1/DTD/svg11.dtd">
<!-- Generated by graphviz version 8.1.0 (20230707.0739)
 -->
<!-- Pages: 1 -->
<svg width="803pt" height="241pt"
 viewBox="0.00 0.00 802.99 240.50" xmlns="http://www.w3.org/2000/svg" xmlns:xlink="http://www.w3.org/1999/xlink">
<g id="graph0" class="graph" transform="scale(1 1) rotate(0) translate(4 236.5)">
<polygon fill="white" stroke="none" points="-4,4 -4,-236.5 798.99,-236.5 798.99,4 -4,4"/>
<!-- user or user:* -->
<g id="node1" class="node">
<title>user or user:*</title>
<ellipse fill="none" stroke="black" cx="61.59" cy="-72" rx="61.59" ry="18"/>
<text text-anchor="middle" x="61.59" y="-66.95" font-family="Times,serif" font-size="14.00">user or user:*</text>
</g>
<!-- document#viewer -->
<g id="node2" class="node">
<title>document#viewer</title>
<ellipse fill="magenta" stroke="magenta" cx="81.59" cy="-214.5" rx="77.45" ry="18"/>
<text text-anchor="middle" x="81.59" y="-209.45" font-family="Times,serif" font-size="14.00">document#viewer</text>
</g>
<!-- user or user:*&#45;&gt;document#viewer -->
<g id="edge1" class="edge">
<title>user or user:*&#45;&gt;document#viewer</title>
<path fill="none" stroke="black" d="M64.04,-90.23C67.41,-113.93 73.53,-156.88 77.57,-185.3"/>
<polygon fill="black" stroke="black" points="74.24,-185.72 79.12,-195.13 81.17,-184.74 74.24,-185.72"/>
<text text-anchor="middle" x="74.96" y="-120.95" font-family="Times,serif" font-size="14.00">5</text>
</g>
<!-- folder#viewer -->
<g id="node3" class="node">
<title>folder#viewer</title>
<ellipse fill="none" stroke="black" cx="212.59" cy="-126" rx="62.61" ry="18"/>
<text text-anchor="middle" x="212.59" y="-120.95" font-family="Times,serif" font-size="14.00">folder#viewer</text>
</g>
<!-- folder#viewer&#45;&gt;document#viewer -->
<g id="edge2" class="edge">
<title>folder#viewer&#45;&gt;document#viewer</title>
<path fill="none" stroke="black" d="M188.25,-143.07C167.7,-156.64 138.06,-176.21 115.24,-191.28"/>
<polygon fill="black" stroke="black" points="113.65,-188.79 107.23,-197.23 117.51,-194.64 113.65,-188.79"/>
<text text-anchor="middle" x="162.96" y="-165.2" font-family="Times,serif" font-size="14.00">9</text>
<text text-anchor="middle" x="157.98" y="-183.93" font-family="Times,serif" font-size="14.00">(document#parent)</text>
</g>
<!-- document#editor -->
<g id="node4" class="node">
<title>document#editor</title>
<ellipse fill="cyan" stroke="cyan" cx="366.59" cy="-126" rx="73.87" ry="18"/>
<text text-anchor="middle" x="366.59" y="-120.95" font-family="Times,serif" font-size="14.00">document#editor</text>
</g>
<!-- document#editor&#45;&gt;document#viewer -->
<g id="edge3" class="edge">
<title>document#editor&#45;&gt;document#viewer</title>
<path fill="none" stroke="black" d="M321.74,-140.61C271.92,-155.73 191.42,-180.16 137.52,-196.52"/>
<polygon fill="black" stroke="black" points="136.67,-193.43 128.11,-199.68 138.7,-200.13 136.67,-193.43"/>
<text text-anchor="middle" x="253.96" y="-165.2" font-family="Times,serif" font-size="14.00">8</text>
</g>
<!-- group#member -->
<g id="node5" class="node">
<title>group#member</title>
<ellipse fill="none" stroke="black" cx="526.59" cy="-126" rx="68.24" ry="18"/>
<text text-anchor="middle" x="526.59" y="-120.95" font-family="Times,serif" font-size="14.00">group#member</text>
</g>
<!-- group#member&#45;&gt;document#viewer -->
<g id="edge4" class="edge">
<title>group#member&#45;&gt;document#viewer</title>
<path fill="none" stroke="black" d="M476.1,-138.38C467.28,-140.3 458.17,-142.24 449.59,-144 346.38,-165.13 226.4,-187.36 152.22,-200.82"/>
<polygon fill="black" stroke="black" points="151.83,-197.52 142.61,-202.75 153.08,-204.41 151.83,-197.52"/>
<text text-anchor="middle" x="362.96" y="-165.2" font-family="Times,serif" font-size="14.00">6</text>
</g>
<!-- group#member&#45;&gt;group#member -->
<g id="edge5" class="edge">
<title>group#member&#45;&gt;group#member</title>
<path fill="none" stroke="black" d="M588.22,-117.89C602.41,-118.59 612.83,-121.29 612.83,-126 612.83,-129.39 607.44,-131.73 599.15,-133.05"/>
<polygon fill="black" stroke="black" points="598.83,-129.66 589.22,-134.11 599.51,-136.63 598.83,-129.66"/>
<text text-anchor="middle" x="619.58" y="-120.95" font-family="Times,serif" font-size="14.00">15</text>
</g>
<!-- document#parent -->
<g id="node6" class="node">
<title>document#parent</title>
<ellipse fill="none" stroke="black" cx="719.59" cy="-126" rx="75.41" ry="18"/>
<text text-anchor="middle" x="719.59" y="-120.95" font-family="Times,serif" font-size="14.00">document#parent</text>
</g>
<!-- folder -->
<g id="node7" class="node">
<title>folder</title>
<ellipse fill="none" stroke="black" cx="407.59" cy="-18" rx="32.93" ry="18"/>
<text text-anchor="middle" x="407.59" y="-12.95" font-family="Times,serif" font-size="14.00">folder</text>
</g>
<!-- folder&#45;&gt;document#parent -->
<g id="edge6" class="edge">
<title>folder&#45;&gt;document#parent</title>
<path fill="none" stroke="black" d="M435,-28.31C486.87,-45.94 600.17,-84.43 667.11,-107.17"/>
<polygon fill="black" stroke="black" points="665.84,-110.78 676.44,-110.68 668.09,-104.15 665.84,-110.78"/>
<text text-anchor="middle" x="612.96" y="-66.95" font-family="Times,serif" font-size="14.00">2</text>
</g>
<!-- user -->
<g id="node8" class="node">
<title>user</title>
<ellipse fill="none" stroke="black" cx="166.59" cy="-18" rx="27" ry="18"/>
<text text-anchor="middle" x="166.59" y="-12.95" font-family="Times,serif" font-size="14.00">user</text>
</g>
<!-- user&#45;&gt;document#viewer -->
<g id="edge8" class="edge">
<title>user&#45;&gt;document#viewer</title>
<path fill="none" stroke="black" d="M159.34,-35.58C144.68,-69.13 111.37,-145.34 93.48,-186.29"/>
<polygon fill="black" stroke="black" points="89.98,-184.56 89.18,-195.12 96.39,-187.36 89.98,-184.56"/>
<text text-anchor="middle" x="130.96" y="-120.95" font-family="Times,serif" font-size="14.00">4</text>
</g>
<!-- user&#45;&gt;folder#viewer -->
<g id="edge9" class="edge">
<title>user&#45;&gt;folder#viewer</title>
<path fill="none" stroke="black" d="M173.78,-35.56C181.01,-52.25 192.31,-78.26 200.85,-97.94"/>
<polygon fill="black" stroke="black" points="197.95,-99.07 205.15,-106.85 204.38,-96.28 197.95,-99.07"/>
<text text-anchor="middle" x="203.34" y="-66.95" font-family="Times,serif" font-size="14.00">11</text>
</g>
<!-- user&#45;&gt;document#editor -->
<g id="edge7" class="edge">
<title>user&#45;&gt;document#editor</title>
<path fill="none" stroke="black" d="M187.24,-29.94C220.13,-47.38 284.99,-81.75 327.04,-104.04"/>
<polygon fill="black" stroke="black" points="325.2,-107.56 335.68,-109.15 328.48,-101.37 325.2,-107.56"/>
<text text-anchor="middle" x="299.96" y="-66.95" font-family="Times,serif" font-size="14.00">1</text>
</g>
<!-- user&#45;&gt;group#member -->
<g id="edge10" class="edge">
<title>user&#45;&gt;group#member</title>
<path fill="none" stroke="black" d="M191.95,-24.73C220.28,-31.26 267.45,-42.53 307.59,-54 365.94,-70.68 432.1,-92.55 476.3,-107.58"/>
<polygon fill="black" stroke="black" points="474.89,-111.14 485.48,-111.06 477.15,-104.52 474.89,-111.14"/>
<text text-anchor="middle" x="428.34" y="-66.95" font-family="Times,serif" font-size="14.00">14</text>
</g>
</g>
</svg>
