<?xml version="1.0" encoding="UTF-8" standalone="no"?>
<!DOCTYPE svg PUBLIC "-//W3C//DTD SVG 1.1//EN"
 "http://www.w3.org/Graphics/SVG/1.1/DTD/svg11.dtd">
<!-- Generated by graphviz version 8.1.0 (20230707.0739)
 -->
<!-- Pages: 1 -->
<svg width="719pt" height="241pt"
 viewBox="0.00 0.00 719.16 240.50" xmlns="http://www.w3.org/2000/svg" xmlns:xlink="http://www.w3.org/1999/xlink">
<g id="graph0" class="graph" transform="scale(1 1) rotate(0) translate(4 236.5)">
<polygon fill="white" stroke="none" points="-4,4 -4,-236.5 715.16,-236.5 715.16,4 -4,4"/>
<!-- document#parent -->
<g id="node1" class="node">
<title>document#parent</title>
<ellipse fill="none" stroke="black" cx="75.41" cy="-126" rx="75.41" ry="18"/>
<text text-anchor="middle" x="75.41" y="-120.95" font-family="Times,serif" font-size="14.00">document#parent</text>
</g>
<!-- group#member -->
<g id="node2" class="node">
<title>group#member</title>
<ellipse fill="none" stroke="black" cx="237.41" cy="-126" rx="68.24" ry="18"/>
<text text-anchor="middle" x="237.41" y="-120.95" font-family="Times,serif" font-size="14.00">group#member</text>
</g>
<!-- group#member&#45;&gt;group#member -->
<g id="edge2" class="edge">
<title>group#member&#45;&gt;group#member</title>
<path fill="none" stroke="black" d="M299.04,-117.89C313.22,-118.59 323.65,-121.29 323.65,-126 323.65,-129.39 318.26,-131.73 309.97,-133.05"/>
<polygon fill="black" stroke="black" points="309.65,-129.66 300.04,-134.11 310.33,-136.63 309.65,-129.66"/>
<text text-anchor="middle" x="330.4" y="-120.95" font-family="Times,serif" font-size="14.00">15</text>
</g>
<!-- document#viewer -->
<g id="node3" class="node">
<title>document#viewer</title>
<ellipse fill="magenta" stroke="magenta" cx="305.41" cy="-214.5" rx="77.45" ry="18"/>
<text text-anchor="middle" x="305.41" y="-209.45" font-family="Times,serif" font-size="14.00">document#viewer</text>
</g>
<!-- group#member&#45;&gt;document#viewer -->
<g id="edge1" class="edge">
<title>group#member&#45;&gt;document#viewer</title>
<path fill="none" stroke="black" d="M250.84,-144.09C260.71,-156.65 274.29,-173.92 285.43,-188.09"/>
<polygon fill="black" stroke="black" points="283.07,-189.75 292,-195.45 288.57,-185.42 283.07,-189.75"/>
<text text-anchor="middle" x="281.78" y="-165.2" font-family="Times,serif" font-size="14.00">6</text>
</g>
<!-- folder#viewer -->
<g id="node4" class="node">
<title>folder#viewer</title>
<ellipse fill="cyan" stroke="cyan" cx="460.41" cy="-126" rx="62.61" ry="18"/>
<text text-anchor="middle" x="460.41" y="-120.95" font-family="Times,serif" font-size="14.00">folder#viewer</text>
</g>
<!-- folder#viewer&#45;&gt;document#viewer -->
<g id="edge3" class="edge">
<title>folder#viewer&#45;&gt;document#viewer</title>
<path fill="none" stroke="black" d="M432.7,-142.46C407.85,-156.33 371.16,-176.81 343.54,-192.22"/>
<polygon fill="black" stroke="black" points="342.22,-189.51 335.19,-197.44 345.63,-195.62 342.22,-189.51"/>
<text text-anchor="middle" x="400.78" y="-165.2" font-family="Times,serif" font-size="14.00">9</text>
<text text-anchor="middle" x="385.94" y="-184.14" font-family="Times,serif" font-size="14.00">(document#parent)</text>
</g>
<!-- user -->
<g id="node5" class="node">
<title>user</title>
<ellipse fill="none" stroke="black" cx="215.41" cy="-18" rx="27" ry="18"/>
<text text-anchor="middle" x="215.41" y="-12.95" font-family="Times,serif" font-size="14.00">user</text>
</g>
<!-- user&#45;&gt;group#member -->
<g id="edge5" class="edge">
<title>user&#45;&gt;group#member</title>
<path fill="none" stroke="black" d="M198.83,-32.63C192.95,-38.52 187.01,-45.91 183.91,-54 178.17,-68.94 176.3,-75.93 183.91,-90 186.68,-95.13 190.56,-99.62 194.99,-103.53"/>
<polygon fill="black" stroke="black" points="192.33,-106.67 202.41,-109.94 196.57,-101.1 192.33,-106.67"/>
<text text-anchor="middle" x="191.16" y="-66.95" font-family="Times,serif" font-size="14.00">14</text>
</g>
<!-- user&#45;&gt;document#viewer -->
<g id="edge7" class="edge">
<title>user&#45;&gt;document#viewer</title>
<path fill="none" stroke="black" d="M229.48,-33.79C245.09,-49.5 271.62,-74.19 298.41,-90 318.03,-101.58 333.43,-89.27 346.41,-108 363.6,-132.81 345.4,-165.83 328.09,-188.28"/>
<polygon fill="black" stroke="black" points="324.91,-185.64 321.33,-195.61 330.34,-190.05 324.91,-185.64"/>
<text text-anchor="middle" x="356.78" y="-120.95" font-family="Times,serif" font-size="14.00">4</text>
</g>
<!-- user&#45;&gt;folder#viewer -->
<g id="edge4" class="edge">
<title>user&#45;&gt;folder#viewer</title>
<path fill="none" stroke="black" d="M237.58,-28.59C278,-46.08 364.32,-83.43 416.86,-106.16"/>
<polygon fill="black" stroke="black" points="415.33,-109.74 425.9,-110.5 418.11,-103.32 415.33,-109.74"/>
<text text-anchor="middle" x="381.16" y="-66.95" font-family="Times,serif" font-size="14.00">11</text>
</g>
<!-- document#editor -->
<g id="node6" class="node">
<title>document#editor</title>
<ellipse fill="none" stroke="black" cx="614.41" cy="-126" rx="73.87" ry="18"/>
<text text-anchor="middle" x="614.41" y="-120.95" font-family="Times,serif" font-size="14.00">document#editor</text>
</g>
<!-- user&#45;&gt;document#editor -->
<g id="edge6" class="edge">
<title>user&#45;&gt;document#editor</title>
<path fill="none" stroke="black" d="M241.56,-23.26C276.11,-29.1 338.76,-40.43 391.41,-54 451.14,-69.4 518.46,-91.5 563.36,-106.95"/>
<polygon fill="black" stroke="black" points="562.11,-110.57 572.71,-110.53 564.4,-103.95 562.11,-110.57"/>
<text text-anchor="middle" x="511.78" y="-66.95" font-family="Times,serif" font-size="14.00">1</text>
</g>
<!-- document#editor&#45;&gt;document#viewer -->
<g id="edge10" class="edge">
<title>document#editor&#45;&gt;document#viewer</title>
<path fill="none" stroke="black" d="M567.14,-140.23C512.6,-155.5 422.87,-180.62 363.95,-197.11"/>
<polygon fill="black" stroke="black" points="363.37,-193.92 354.69,-199.98 365.26,-200.66 363.37,-193.92"/>
<text text-anchor="middle" x="491.78" y="-165.2" font-family="Times,serif" font-size="14.00">8</text>
</g>
<!-- folder -->
<g id="node7" class="node">
<title>folder</title>
<ellipse fill="none" stroke="black" cx="134.41" cy="-18" rx="32.93" ry="18"/>
<text text-anchor="middle" x="134.41" y="-12.95" font-family="Times,serif" font-size="14.00">folder</text>
</g>
<!-- folder&#45;&gt;document#parent -->
<g id="edge8" class="edge">
<title>folder&#45;&gt;document#parent</title>
<path fill="none" stroke="black" d="M125.19,-35.56C115.82,-52.4 101.15,-78.74 90.16,-98.49"/>
<polygon fill="black" stroke="black" points="86.76,-96.41 84.95,-106.85 92.87,-99.82 86.76,-96.41"/>
<text text-anchor="middle" x="117.78" y="-66.95" font-family="Times,serif" font-size="14.00">2</text>
</g>
<!-- user or user:* -->
<g id="node8" class="node">
<title>user or user:*</title>
<ellipse fill="none" stroke="black" cx="649.41" cy="-72" rx="61.59" ry="18"/>
<text text-anchor="middle" x="649.41" y="-66.95" font-family="Times,serif" font-size="14.00">user or user:*</text>
</g>
<!-- user or user:*&#45;&gt;document#viewer -->
<g id="edge9" class="edge">
<title>user or user:*&#45;&gt;document#viewer</title>
<path fill="none" stroke="black" d="M678.98,-87.98C686.34,-93.25 693.29,-99.91 697.41,-108 704.66,-122.26 707.69,-131.74 697.41,-144 659.29,-189.47 496.01,-205.21 392.58,-210.64"/>
<polygon fill="black" stroke="black" points="392.64,-207.19 382.83,-211.18 392.99,-214.18 392.64,-207.19"/>
<text text-anchor="middle" x="707.78" y="-120.95" font-family="Times,serif" font-size="14.00">5</text>
</g>
</g>
</svg>
