<?xml version="1.0" encoding="UTF-8" standalone="no"?>
<!DOCTYPE svg PUBLIC "-//W3C//DTD SVG 1.1//EN"
 "http://www.w3.org/Graphics/SVG/1.1/DTD/svg11.dtd">
<!-- Generated by graphviz version 8.1.0 (20230707.0739)
 -->
<!-- Pages: 1 -->
<svg width="719pt" height="241pt"
 viewBox="0.00 0.00 719.16 240.50" xmlns="http://www.w3.org/2000/svg" xmlns:xlink="http://www.w3.org/1999/xlink">
<g id="graph0" class="graph" transform="scale(1 1) rotate(0) translate(4 236.5)">
<polygon fill="white" stroke="none" points="-4,4 -4,-236.5 715.16,-236.5 715.16,4 -4,4"/>
<!-- folder -->
<g id="node1" class="node">
<title>folder</title>
<ellipse fill="none" stroke="black" cx="140.41" cy="-18" rx="32.93" ry="18"/>
<text text-anchor="middle" x="140.41" y="-12.95" font-family="Times,serif" font-size="14.00">folder</text>
</g>
<!-- document#parent -->
<g id="node2" class="node">
<title>document#parent</title>
<ellipse fill="none" stroke="black" cx="75.41" cy="-126" rx="75.41" ry="18"/>
<text text-anchor="middle" x="75.41" y="-120.95" font-family="Times,serif" font-size="14.00">document#parent</text>
</g>
<!-- folder&#45;&gt;document#parent -->
<g id="edge1" class="edge">
<title>folder&#45;&gt;document#parent</title>
<path fill="none" stroke="black" d="M130.25,-35.56C119.93,-52.4 103.77,-78.74 91.66,-98.49"/>
<polygon fill="black" stroke="black" points="88.17,-96.5 85.92,-106.85 94.13,-100.16 88.17,-96.5"/>
<text text-anchor="middle" x="121.78" y="-66.95" font-family="Times,serif" font-size="14.00">2</text>
</g>
<!-- folder#viewer -->
<g id="node3" class="node">
<title>folder#viewer</title>
<ellipse fill="none" stroke="black" cx="231.41" cy="-126" rx="62.61" ry="18"/>
<text text-anchor="middle" x="231.41" y="-120.95" font-family="Times,serif" font-size="14.00">folder#viewer</text>
</g>
<!-- document#viewer -->
<g id="node4" class="node">
<title>document#viewer</title>
<ellipse fill="none" stroke="black" cx="280.41" cy="-214.5" rx="77.45" ry="18"/>
<text text-anchor="middle" x="280.41" y="-209.45" font-family="Times,serif" font-size="14.00">document#viewer</text>
</g>
<!-- folder#viewer&#45;&gt;document#viewer -->
<g id="edge2" class="edge">
<title>folder#viewer&#45;&gt;document#viewer</title>
<path fill="none" stroke="black" d="M241.09,-144.09C247.95,-156.21 257.31,-172.73 265.17,-186.61"/>
<polygon fill="black" stroke="black" points="262.6,-188.17 270.58,-195.15 268.69,-184.72 262.6,-188.17"/>
<text text-anchor="middle" x="263.78" y="-165.2" font-family="Times,serif" font-size="14.00">9</text>
<text text-anchor="middle" x="218.83" y="-182.85" font-family="Times,serif" font-size="14.00">(document#parent)</text>
</g>
<!-- document#editor -->
<g id="node5" class="node">
<title>document#editor</title>
<ellipse fill="none" stroke="black" cx="429.41" cy="-126" rx="73.87" ry="18"/>
<text text-anchor="middle" x="429.41" y="-120.95" font-family="Times,serif" font-size="14.00">document#editor</text>
</g>
<!-- document#editor&#45;&gt;document#viewer -->
<g id="edge3" class="edge">
<title>document#editor&#45;&gt;document#viewer</title>
<path fill="none" stroke="black" d="M401.73,-143.07C377.97,-156.86 343.52,-176.86 317.4,-192.02"/>
<polygon fill="black" stroke="black" points="316.08,-189.32 309.19,-197.37 319.59,-195.38 316.08,-189.32"/>
<text text-anchor="middle" x="371.78" y="-165.2" font-family="Times,serif" font-size="14.00">8</text>
</g>
<!-- user or user:* -->
<g id="node6" class="node">
<title>user or user:*</title>
<ellipse fill="none" stroke="black" cx="642.41" cy="-72" rx="61.59" ry="18"/>
<text text-anchor="middle" x="642.41" y="-66.95" font-family="Times,serif" font-size="14.00">user or user:*</text>
</g>
<!-- user or user:*&#45;&gt;document#viewer -->
<g id="edge4" class="edge">
<title>user or user:*&#45;&gt;document#viewer</title>
<path fill="none" stroke="black" d="M677.08,-87.21C685.55,-92.44 693.57,-99.28 698.41,-108 706.16,-121.99 708.75,-131.79 698.41,-144 656.92,-192.95 477.89,-207.46 368.02,-211.74"/>
<polygon fill="black" stroke="black" points="368.15,-208.27 358.28,-212.13 368.41,-215.26 368.15,-208.27"/>
<text text-anchor="middle" x="707.78" y="-120.95" font-family="Times,serif" font-size="14.00">5</text>
</g>
<!-- group#member -->
<g id="node7" class="node">
<title>group#member</title>
<ellipse fill="none" stroke="black" cx="589.41" cy="-126" rx="68.24" ry="18"/>
<text text-anchor="middle" x="589.41" y="-120.95" font-family="Times,serif" font-size="14.00">group#member</text>
</g>
<!-- group#member&#45;&gt;document#viewer -->
<g id="edge5" class="edge">
<title>group#member&#45;&gt;document#viewer</title>
<path fill="none" stroke="black" d="M543.81,-139.76C489.41,-154.99 398.36,-180.48 338.84,-197.14"/>
<polygon fill="black" stroke="black" points="338.16,-193.98 329.48,-200.04 340.05,-200.72 338.16,-193.98"/>
<text text-anchor="middle" x="466.78" y="-165.2" font-family="Times,serif" font-size="14.00">6</text>
</g>
<!-- group#member&#45;&gt;group#member -->
<g id="edge6" class="edge">
<title>group#member&#45;&gt;group#member</title>
<path fill="none" stroke="black" d="M651.04,-117.89C665.22,-118.59 675.65,-121.29 675.65,-126 675.65,-129.39 670.26,-131.73 661.97,-133.05"/>
<polygon fill="black" stroke="black" points="661.65,-129.66 652.04,-134.11 662.33,-136.63 661.65,-129.66"/>
<text text-anchor="middle" x="682.4" y="-120.95" font-family="Times,serif" font-size="14.00">15</text>
</g>
<!-- user -->
<g id="node8" class="node">
<title>user</title>
<ellipse fill="none" stroke="black" cx="224.41" cy="-18" rx="27" ry="18"/>
<text text-anchor="middle" x="224.41" y="-12.95" font-family="Times,serif" font-size="14.00">user</text>
</g>
<!-- user&#45;&gt;folder#viewer -->
<g id="edge8" class="edge">
<title>user&#45;&gt;folder#viewer</title>
<path fill="none" stroke="black" d="M206.65,-32.02C200.09,-37.91 193.4,-45.47 189.91,-54 183.84,-68.8 183.16,-75.49 189.91,-90 191.93,-94.35 194.78,-98.35 198.06,-101.97"/>
<polygon fill="black" stroke="black" points="195.1,-103.93 204.76,-108.28 199.92,-98.86 195.1,-103.93"/>
<text text-anchor="middle" x="197.16" y="-66.95" font-family="Times,serif" font-size="14.00">11</text>
</g>
<!-- user&#45;&gt;document#viewer -->
<g id="edge7" class="edge">
<title>user&#45;&gt;document#viewer</title>
<path fill="none" stroke="black" d="M239.41,-33.28C260.43,-53.68 296.8,-90.62 303.41,-108 313.19,-133.75 304.16,-164.7 294.7,-186.4"/>
<polygon fill="black" stroke="black" points="291.16,-184.7 290.09,-195.24 297.5,-187.67 291.16,-184.7"/>
<text text-anchor="middle" x="311.78" y="-120.95" font-family="Times,serif" font-size="14.00">4</text>
</g>
<!-- user&#45;&gt;document#editor -->
<g id="edge10" class="edge">
<title>user&#45;&gt;document#editor</title>
<path fill="none" stroke="black" d="M245.19,-29.75C278.9,-47.18 346.09,-81.92 389.33,-104.28"/>
<polygon fill="black" stroke="black" points="387.48,-107.78 397.97,-109.26 390.7,-101.56 387.48,-107.78"/>
<text text-anchor="middle" x="360.78" y="-66.95" font-family="Times,serif" font-size="14.00">1</text>
</g>
<!-- user&#45;&gt;group#member -->
<g id="edge9" class="edge">
<title>user&#45;&gt;group#member</title>
<path fill="none" stroke="black" d="M250.04,-24.64C278.95,-31.14 327.3,-42.42 368.41,-54 427.48,-70.64 494.48,-92.61 539.07,-107.68"/>
<polygon fill="black" stroke="black" points="537.75,-111.27 548.34,-111.16 540,-104.64 537.75,-111.27"/>
<text text-anchor="middle" x="490.16" y="-66.95" font-family="Times,serif" font-size="14.00">14</text>
</g>
</g>
</svg>
