<?xml version="1.0" encoding="UTF-8" standalone="no"?><!DOCTYPE svg PUBLIC "-//W3C//DTD SVG 1.1//EN" "http://www.w3.org/Graphics/SVG/1.1/DTD/svg11.dtd"><!-- Generated by graphviz version 2.40.1 (20161225.0304)
 --><!-- Title: G Pages: 1 --><svg xmlns="http://www.w3.org/2000/svg" xmlns:xlink="http://www.w3.org/1999/xlink" width="249pt" height="222pt" viewBox="0.00 0.00 249.22 221.60">
<g id="graph0" class="graph" transform="scale(1 1) rotate(0) translate(4 217.6)">
<title>G</title>
<polygon fill="#ffffff" stroke="transparent" points="-4,4 -4,-217.6 245.2229,-217.6 245.2229,4 -4,4"/>
<!-- user:* -->
<g id="node1" class="node">
<title>user:*</title>
<ellipse fill="none" stroke="#000000" cx="77.0031" cy="-18" rx="34.769" ry="18"/>
<text text-anchor="middle" x="77.0031" y="-13.8" font-family="Times,serif" font-size="14.00" fill="#000000">user:*</text>
</g>
<!-- document#writer -->
<g id="node2" class="node">
<title>document#writer</title>
<ellipse fill="none" stroke="#000000" cx="77.0031" cy="-106.8" rx="77.0062" ry="18"/>
<text text-anchor="middle" x="77.0031" y="-102.6" font-family="Times,serif" font-size="14.00" fill="#000000">document#writer</text>
</g>
<!-- user:*&#45;&gt;document#writer -->
<g id="edge1" class="edge">
<title>user:*-&gt;document#writer</title>
<path fill="none" stroke="#000000" d="M77.0031,-36.3994C77.0031,-48.5051 77.0031,-64.5924 77.0031,-78.3326"/>
<polygon fill="#000000" stroke="#000000" points="73.5032,-78.7279 77.0031,-88.728 80.5032,-78.728 73.5032,-78.7279"/>
<text text-anchor="middle" x="80.5031" y="-58.2" font-family="Times,serif" font-size="14.00" fill="#000000">1</text>
</g>
<!-- document#viewer -->
<g id="node4" class="node">
<title>document#viewer</title>
<ellipse fill="none" stroke="#000000" cx="161.0031" cy="-195.6" rx="80.4403" ry="18"/>
<text text-anchor="middle" x="161.0031" y="-191.4" font-family="Times,serif" font-size="14.00" fill="#000000">document#viewer</text>
</g>
<!-- document#writer&#45;&gt;document#viewer -->
<g id="edge3" class="edge">
<title>document#writer-&gt;document#viewer</title>
<path fill="none" stroke="#000000" stroke-dasharray="5,2" d="M94.0018,-124.77C106.4937,-137.9758 123.6251,-156.0862 137.4379,-170.6882"/>
<polygon fill="#000000" stroke="#000000" points="134.9017,-173.1003 144.3164,-177.9598 139.987,-168.2898 134.9017,-173.1003"/>
<text text-anchor="middle" x="130.5031" y="-147" font-family="Times,serif" font-size="14.00" fill="#000000">3</text>
</g>
<!-- user -->
<g id="node3" class="node">
<title>user</title>
<ellipse fill="none" stroke="#000000" cx="199.0031" cy="-106.8" rx="27.2447" ry="18"/>
<text text-anchor="middle" x="199.0031" y="-102.6" font-family="Times,serif" font-size="14.00" fill="#000000">user</text>
</g>
<!-- user&#45;&gt;document#viewer -->
<g id="edge2" class="edge">
<title>user-&gt;document#viewer</title>
<path fill="none" stroke="#000000" d="M191.4955,-124.344C186.153,-136.8286 178.8687,-153.851 172.7594,-168.1274"/>
<polygon fill="#000000" stroke="#000000" points="169.4725,-166.9122 168.756,-177.4828 175.908,-169.6662 169.4725,-166.9122"/>
<text text-anchor="middle" x="186.5031" y="-147" font-family="Times,serif" font-size="14.00" fill="#000000">2</text>
</g>
</g>
</svg>