<?xml version="1.0" encoding="UTF-8" standalone="no"?><!DOCTYPE svg PUBLIC "-//W3C//DTD SVG 1.1//EN" "http://www.w3.org/Graphics/SVG/1.1/DTD/svg11.dtd"><!-- Generated by graphviz version 2.40.1 (20161225.0304)
 --><!-- Title: G Pages: 1 --><svg xmlns="http://www.w3.org/2000/svg" xmlns:xlink="http://www.w3.org/1999/xlink" width="276pt" height="222pt" viewBox="0.00 0.00 276.35 221.60">
<g id="graph0" class="graph" transform="scale(1 1) rotate(0) translate(4 217.6)">
<title>G</title>
<polygon fill="#ffffff" stroke="transparent" points="-4,4 -4,-217.6 272.3545,-217.6 272.3545,4 -4,4"/>
<!-- user -->
<g id="node1" class="node">
<title>user</title>
<ellipse fill="none" stroke="#000000" cx="125.2348" cy="-18" rx="27.2447" ry="18"/>
<text text-anchor="middle" x="125.2348" y="-13.8" font-family="Times,serif" font-size="14.00" fill="#000000">user</text>
</g>
<!-- document#a -->
<g id="node3" class="node">
<title>document#a</title>
<ellipse fill="none" stroke="#000000" cx="58.2348" cy="-106.8" rx="58.4706" ry="18"/>
<text text-anchor="middle" x="58.2348" y="-102.6" font-family="Times,serif" font-size="14.00" fill="#000000">document#a</text>
</g>
<!-- user&#45;&gt;document#a -->
<g id="edge1" class="edge">
<title>user-&gt;document#a</title>
<path fill="none" stroke="#000000" d="M112.946,-34.2873C103.1562,-47.2624 89.2608,-65.679 77.9237,-80.7049"/>
<polygon fill="#000000" stroke="#000000" points="74.8237,-79.0025 71.5946,-89.0933 80.4116,-83.2186 74.8237,-79.0025"/>
<text text-anchor="middle" x="101.7348" y="-58.2" font-family="Times,serif" font-size="14.00" fill="#000000">1</text>
</g>
<!-- document#b -->
<g id="node4" class="node">
<title>document#b</title>
<ellipse fill="none" stroke="#000000" cx="193.2348" cy="-106.8" rx="58.554" ry="18"/>
<text text-anchor="middle" x="193.2348" y="-102.6" font-family="Times,serif" font-size="14.00" fill="#000000">document#b</text>
</g>
<!-- user&#45;&gt;document#b -->
<g id="edge2" class="edge">
<title>user-&gt;document#b</title>
<path fill="none" stroke="#000000" d="M137.7071,-34.2873C147.7359,-47.3837 162.0097,-66.0237 173.574,-81.1253"/>
<polygon fill="#000000" stroke="#000000" points="170.817,-83.2817 179.6757,-89.0933 176.3746,-79.0258 170.817,-83.2817"/>
<text text-anchor="middle" x="168.7348" y="-58.2" font-family="Times,serif" font-size="14.00" fill="#000000">2</text>
</g>
<!-- document -->
<g id="node2" class="node">
<title>document</title>
<ellipse fill="none" stroke="#000000" cx="219.2348" cy="-18" rx="49.2396" ry="18"/>
<text text-anchor="middle" x="219.2348" y="-13.8" font-family="Times,serif" font-size="14.00" fill="#000000">document</text>
</g>
<!-- document#c -->
<g id="node5" class="node">
<title>document#c</title>
<ellipse fill="none" stroke="#000000" cx="125.2348" cy="-195.6" rx="58.4706" ry="18"/>
<text text-anchor="middle" x="125.2348" y="-191.4" font-family="Times,serif" font-size="14.00" fill="#000000">document#c</text>
</g>
<!-- document#a&#45;&gt;document#c -->
<g id="edge3" class="edge">
<title>document#a-&gt;document#c</title>
<path fill="none" stroke="#000000" stroke-dasharray="5,2" d="M71.4719,-124.344C81.227,-137.2733 94.6542,-155.0693 105.6494,-169.6419"/>
<polygon fill="#000000" stroke="#000000" points="102.979,-171.9138 111.796,-177.7885 108.5669,-167.6977 102.979,-171.9138"/>
<text text-anchor="middle" x="101.7348" y="-147" font-family="Times,serif" font-size="14.00" fill="#000000">3</text>
</g>
<!-- document#b&#45;&gt;document#c -->
<g id="edge4" class="edge">
<title>document#b-&gt;document#c</title>
<path fill="none" stroke="#000000" stroke-dasharray="5,2" d="M179.8002,-124.344C169.8994,-137.2733 156.2719,-155.0693 145.1126,-169.6419"/>
<polygon fill="#000000" stroke="#000000" points="142.1753,-167.721 138.8743,-177.7885 147.733,-171.9769 142.1753,-167.721"/>
<text text-anchor="middle" x="168.7348" y="-147" font-family="Times,serif" font-size="14.00" fill="#000000">4</text>
</g>
</g>
</svg>