<?xml version="1.0" encoding="UTF-8" standalone="no"?>
<!DOCTYPE svg PUBLIC "-//W3C//DTD SVG 1.1//EN"
        "http://www.w3.org/Graphics/SVG/1.1/DTD/svg11.dtd">
<!-- Generated by graphviz version 9.0.0 (20230911.1827)
 -->
<!-- Pages: 1 -->
<svg width="739pt" height="221pt"
     viewBox="0.00 0.00 739.28 221.00" xmlns="http://www.w3.org/2000/svg" xmlns:xlink="http://www.w3.org/1999/xlink">
    <g id="graph0" class="graph" transform="scale(1 1) rotate(0) translate(4 217)">
        <polygon fill="white" stroke="none" points="-4,4 -4,-217 735.28,-217 735.28,4 -4,4"/>
        <!-- 2 -->
        <g id="node1" class="node">
            <title>2</title>
            <ellipse fill="none" stroke="black" cx="73.87" cy="-106.5" rx="73.87" ry="18"/>
            <text text-anchor="middle" x="73.87" y="-101.45" font-family="Times,serif" font-size="14.00">document#editor</text>
        </g>
        <!-- 3 -->
        <g id="node2" class="node">
            <title>3</title>
            <ellipse fill="none" stroke="black" cx="235.87" cy="-195" rx="27" ry="18"/>
            <text text-anchor="middle" x="235.87" y="-189.95" font-family="Times,serif" font-size="14.00">user</text>
        </g>
        <!-- 2&#45;&gt;3 -->
        <g id="edge2" class="edge">
            <title>2&#45;&gt;3</title>
            <path fill="none" stroke="black" d="M100.53,-123.58C118.11,-134.02 141.77,-147.72 163.12,-159 176.29,-165.95 191.06,-173.17 203.83,-179.22"/>
            <polygon fill="black" stroke="black" points="202.1,-182.28 212.64,-183.36 205.08,-175.94 202.1,-182.28"/>
            <text text-anchor="middle" x="167.25" y="-145.7" font-family="Times,serif" font-size="14.00">1</text>
        </g>
        <!-- 4 -->
        <g id="node3" class="node">
            <title>4</title>
            <ellipse fill="none" stroke="black" cx="655.87" cy="-18" rx="75.41" ry="18"/>
            <text text-anchor="middle" x="655.87" y="-12.95" font-family="Times,serif" font-size="14.00">document#parent</text>
        </g>
        <!-- 5 -->
        <g id="node4" class="node">
            <title>5</title>
            <ellipse fill="none" stroke="black" cx="655.87" cy="-106.5" rx="32.93" ry="18"/>
            <text text-anchor="middle" x="655.87" y="-101.45" font-family="Times,serif" font-size="14.00">folder</text>
        </g>
        <!-- 4&#45;&gt;5 -->
        <g id="edge6" class="edge">
            <title>4&#45;&gt;5</title>
            <path fill="none" stroke="black" d="M655.87,-36.09C655.87,-47.74 655.87,-63.45 655.87,-76.98"/>
            <polygon fill="black" stroke="black" points="652.37,-76.64 655.87,-86.64 659.37,-76.64 652.37,-76.64"/>
            <text text-anchor="middle" x="659.25" y="-57.2" font-family="Times,serif" font-size="14.00">2</text>
        </g>
        <!-- 6 -->
        <g id="node5" class="node">
            <title>6</title>
            <ellipse fill="none" stroke="black" cx="241.87" cy="-18" rx="77.45" ry="18"/>
            <text text-anchor="middle" x="241.87" y="-12.95" font-family="Times,serif" font-size="14.00">document#viewer</text>
        </g>
        <!-- 6&#45;&gt;2 -->
        <g id="edge1" class="edge">
            <title>6&#45;&gt;2</title>
            <path fill="none" stroke="black" stroke-dasharray="5,2" d="M205.43,-34.24C191.99,-40.12 176.72,-47.08 163.12,-54 145.16,-63.14 125.73,-74.2 109.6,-83.73"/>
            <polygon fill="black" stroke="black" points="108.13,-80.54 101.33,-88.66 111.71,-86.55 108.13,-80.54"/>
            <text text-anchor="middle" x="167.25" y="-57.2" font-family="Times,serif" font-size="14.00">6</text>
        </g>
        <!-- 6&#45;&gt;3 -->
        <g id="edge3" class="edge">
            <title>6&#45;&gt;3</title>
            <path fill="none" stroke="black" d="M225.47,-35.92C213.93,-49.07 199.47,-68.4 193.12,-88.5 188.3,-103.76 188.77,-109.1 193.12,-124.5 197.76,-140.9 207.48,-157.24 216.49,-169.95"/>
            <polygon fill="black" stroke="black" points="213.46,-171.75 222.23,-177.69 219.08,-167.57 213.46,-171.75"/>
            <text text-anchor="middle" x="197.25" y="-101.45" font-family="Times,serif" font-size="14.00">3</text>
        </g>
        <!-- 7 -->
        <g id="node6" class="node">
            <title>7</title>
            <ellipse fill="none" stroke="black" cx="241.87" cy="-106.5" rx="33.44" ry="18"/>
            <text text-anchor="middle" x="241.87" y="-101.45" font-family="Times,serif" font-size="14.00">user:*</text>
        </g>
        <!-- 6&#45;&gt;7 -->
        <g id="edge7" class="edge">
            <title>6&#45;&gt;7</title>
            <path fill="none" stroke="black" d="M241.87,-36.09C241.87,-47.74 241.87,-63.45 241.87,-76.98"/>
            <polygon fill="black" stroke="black" points="238.37,-76.64 241.87,-86.64 245.37,-76.64 238.37,-76.64"/>
            <text text-anchor="middle" x="245.25" y="-57.2" font-family="Times,serif" font-size="14.00">4</text>
        </g>
        <!-- 8 -->
        <g id="node7" class="node">
            <title>8</title>
            <ellipse fill="none" stroke="black" cx="361.87" cy="-106.5" rx="68.24" ry="18"/>
            <text text-anchor="middle" x="361.87" y="-101.45" font-family="Times,serif" font-size="14.00">group#member</text>
        </g>
        <!-- 6&#45;&gt;8 -->
        <g id="edge8" class="edge">
            <title>6&#45;&gt;8</title>
            <path fill="none" stroke="black" d="M264.72,-35.47C283.16,-48.76 309.3,-67.61 329.83,-82.4"/>
            <polygon fill="black" stroke="black" points="327.72,-85.19 337.87,-88.2 331.81,-79.52 327.72,-85.19"/>
            <text text-anchor="middle" x="316.25" y="-57.2" font-family="Times,serif" font-size="14.00">5</text>
        </g>
        <!-- 9 -->
        <g id="node8" class="node">
            <title>9</title>
            <ellipse fill="none" stroke="black" cx="541.87" cy="-106.5" rx="62.61" ry="18"/>
            <text text-anchor="middle" x="541.87" y="-101.45" font-family="Times,serif" font-size="14.00">folder#viewer</text>
        </g>
        <!-- 6&#45;&gt;9 -->
        <g id="edge10" class="edge">
            <title>6&#45;&gt;9</title>
            <path fill="none" stroke="black" d="M289.08,-32.61C343.06,-48.18 431.29,-73.61 487.94,-89.95"/>
            <polygon fill="black" stroke="black" points="486.8,-93.26 497.38,-92.67 488.74,-86.54 486.8,-93.26"/>
            <text text-anchor="middle" x="422.25" y="-57.2" font-family="Times,serif" font-size="14.00">7</text>
            <text text-anchor="middle" x="447.08" y="-79.79" font-family="Times,serif" font-size="14.00">(document#parent)</text>
        </g>
        <!-- 8&#45;&gt;3 -->
        <g id="edge4" class="edge">
            <title>8&#45;&gt;3</title>
            <path fill="none" stroke="black" d="M338.17,-123.77C316.93,-138.35 285.78,-159.74 263.43,-175.08"/>
            <polygon fill="black" stroke="black" points="261.66,-172.05 255.4,-180.59 265.63,-177.82 261.66,-172.05"/>
            <text text-anchor="middle" x="314.25" y="-145.7" font-family="Times,serif" font-size="14.00">9</text>
        </g>
        <!-- 8&#45;&gt;8 -->
        <g id="edge9" class="edge">
            <title>8&#45;&gt;8</title>
            <path fill="none" stroke="black" d="M423.5,-98.39C437.69,-99.09 448.11,-101.79 448.11,-106.5 448.11,-109.85 442.84,-112.18 434.7,-113.51"/>
            <polygon fill="black" stroke="black" points="434.61,-110 425.01,-114.46 435.3,-116.96 434.61,-110"/>
            <text text-anchor="middle" x="454.86" y="-101.45" font-family="Times,serif" font-size="14.00">10</text>
        </g>
        <!-- 9&#45;&gt;3 -->
        <g id="edge5" class="edge">
            <title>9&#45;&gt;3</title>
            <path fill="none" stroke="black" d="M498.35,-119.8C437.38,-137.04 327.69,-168.05 271.36,-183.97"/>
            <polygon fill="black" stroke="black" points="270.64,-180.53 261.97,-186.62 272.55,-187.27 270.64,-180.53"/>
            <text text-anchor="middle" x="420.25" y="-145.7" font-family="Times,serif" font-size="14.00">8</text>
        </g>
    </g>
</svg>
