<?xml version="1.0" encoding="UTF-8" standalone="no"?><!DOCTYPE svg PUBLIC "-//W3C//DTD SVG 1.1//EN" "http://www.w3.org/Graphics/SVG/1.1/DTD/svg11.dtd"><!-- Generated by graphviz version 2.40.1 (20161225.0304)
 --><!-- Title: G Pages: 1 --><svg xmlns="http://www.w3.org/2000/svg" xmlns:xlink="http://www.w3.org/1999/xlink" width="696pt" height="188pt" viewBox="0.00 0.00 696.13 188.00">
<g id="graph0" class="graph" transform="scale(1 1) rotate(0) translate(4 184)">
<title>G</title>
<polygon fill="#ffffff" stroke="transparent" points="-4,4 -4,-184 692.1281,-184 692.1281,4 -4,4"/>
<!-- user -->
<g id="node1" class="node">
<title>user</title>
<ellipse fill="none" stroke="#000000" cx="238.0346" cy="-18" rx="27.2447" ry="18"/>
<text text-anchor="middle" x="238.0346" y="-13.8" font-family="Times,serif" font-size="14.00" fill="#000000">user</text>
</g>
<!-- group#member -->
<g id="node2" class="node">
<title>group#member</title>
<ellipse fill="#add8e6" stroke="#000000" cx="70.0346" cy="-90" rx="70.0693" ry="18"/>
<text text-anchor="middle" x="70.0346" y="-85.8" font-family="Times,serif" font-size="14.00" fill="#000000">group#member</text>
</g>
<!-- user&#45;&gt;group#member -->
<g id="edge2" class="edge">
<title>user-&gt;group#member</title>
<path fill="none" stroke="#000000" d="M215.0272,-27.8603C189.5083,-38.797 147.6951,-56.717 115.5119,-70.5097"/>
<polygon fill="#000000" stroke="#000000" points="114.1005,-67.3067 106.2878,-74.4629 116.858,-73.7407 114.1005,-67.3067"/>
</g>
<!-- document#viewer -->
<g id="node6" class="node">
<title>document#viewer</title>
<ellipse fill="#ff00ff" stroke="#000000" cx="290.0346" cy="-162" rx="80.4403" ry="18"/>
<text text-anchor="middle" x="290.0346" y="-157.8" font-family="Times,serif" font-size="14.00" fill="#000000">document#viewer</text>
</g>
<!-- user&#45;&gt;document#viewer -->
<g id="edge6" class="edge">
<title>user-&gt;document#viewer</title>
<path fill="none" stroke="#000000" d="M224.2446,-33.9065C209.9904,-52.3938 191.5712,-83.4961 205.0346,-108 212.8385,-122.2033 226.1353,-133.2008 239.924,-141.4518"/>
<polygon fill="#000000" stroke="#000000" points="238.5601,-144.6975 249.0034,-146.4834 241.9532,-138.5748 238.5601,-144.6975"/>
</g>
<!-- document#editor -->
<g id="node7" class="node">
<title>document#editor</title>
<ellipse fill="none" stroke="#000000" cx="290.0346" cy="-90" rx="76.4478" ry="18"/>
<text text-anchor="middle" x="290.0346" y="-85.8" font-family="Times,serif" font-size="14.00" fill="#000000">document#editor</text>
</g>
<!-- user&#45;&gt;document#editor -->
<g id="edge5" class="edge">
<title>user-&gt;document#editor</title>
<path fill="none" stroke="#000000" d="M249.8343,-34.3379C256.1382,-43.0664 264.0487,-54.0195 271.1813,-63.8953"/>
<polygon fill="#000000" stroke="#000000" points="268.4967,-66.1562 277.1891,-72.2138 274.1715,-62.0578 268.4967,-66.1562"/>
</g>
<!-- folder#viewer -->
<g id="node8" class="node">
<title>folder#viewer</title>
<ellipse fill="none" stroke="#000000" cx="537.0346" cy="-90" rx="65.3878" ry="18"/>
<text text-anchor="middle" x="537.0346" y="-85.8" font-family="Times,serif" font-size="14.00" fill="#000000">folder#viewer</text>
</g>
<!-- user&#45;&gt;folder#viewer -->
<g id="edge8" class="edge">
<title>user-&gt;folder#viewer</title>
<path fill="none" stroke="#000000" d="M258.9381,-29.6606C263.7869,-32.0223 269.0036,-34.2996 274.0346,-36 355.0429,-63.3799 379.4644,-53.889 463.0346,-72 468.0742,-73.0921 473.2957,-74.2693 478.5267,-75.4802"/>
<polygon fill="#000000" stroke="#000000" points="478.0172,-78.9557 488.5528,-77.8369 479.619,-72.1414 478.0172,-78.9557"/>
</g>
<!-- group#member&#45;&gt;group#member -->
<g id="edge3" class="edge">
<title>group#member-&gt;group#member</title>
<path fill="none" stroke="#ff0000" d="M117.5804,-76.7381C139.2407,-75.3841 158.0693,-79.8047 158.0693,-90 158.0693,-98.5226 144.912,-103.01 127.942,-103.462"/>
<polygon fill="#ff0000" stroke="#ff0000" points="127.6462,-99.9557 117.5804,-103.2619 127.5109,-106.9544 127.6462,-99.9557"/>
</g>
<!-- group#member&#45;&gt;document#viewer -->
<g id="edge4" class="edge">
<title>group#member-&gt;document#viewer</title>
<path fill="none" stroke="#ff0000" d="M113.4996,-104.2249C148.215,-115.5863 197.0925,-131.5826 234.618,-143.8637"/>
<polygon fill="#ff0000" stroke="#ff0000" points="233.7953,-147.277 244.3879,-147.0611 235.9726,-140.6242 233.7953,-147.277"/>
</g>
<!-- document -->
<g id="node3" class="node">
<title>document</title>
<ellipse fill="none" stroke="#000000" cx="332.0346" cy="-18" rx="49.2396" ry="18"/>
<text text-anchor="middle" x="332.0346" y="-13.8" font-family="Times,serif" font-size="14.00" fill="#000000">document</text>
</g>
<!-- group -->
<g id="node4" class="node">
<title>group</title>
<ellipse fill="none" stroke="#000000" cx="433.0346" cy="-18" rx="33.6305" ry="18"/>
<text text-anchor="middle" x="433.0346" y="-13.8" font-family="Times,serif" font-size="14.00" fill="#000000">group</text>
</g>
<!-- user:* -->
<g id="node5" class="node">
<title>user:*</title>
<ellipse fill="none" stroke="#000000" cx="419.0346" cy="-90" rx="34.769" ry="18"/>
<text text-anchor="middle" x="419.0346" y="-85.8" font-family="Times,serif" font-size="14.00" fill="#000000">user:*</text>
</g>
<!-- user:*&#45;&gt;document#viewer -->
<g id="edge1" class="edge">
<title>user:*-&gt;document#viewer</title>
<path fill="none" stroke="#000000" d="M395.3741,-103.2059C376.9171,-113.5075 350.8809,-128.0393 329.3116,-140.078"/>
<polygon fill="#000000" stroke="#000000" points="327.4024,-137.1353 320.3762,-145.0652 330.814,-143.2477 327.4024,-137.1353"/>
</g>
<!-- document#editor&#45;&gt;document#viewer -->
<g id="edge7" class="edge">
<title>document#editor-&gt;document#viewer</title>
<path fill="none" stroke="#000000" stroke-dasharray="1,5" d="M290.0346,-108.1686C290.0346,-115.869 290.0346,-125.0257 290.0346,-133.5834"/>
<polygon fill="#000000" stroke="#000000" points="286.5347,-133.5867 290.0346,-143.5867 293.5347,-133.5868 286.5347,-133.5867"/>
</g>
<!-- folder#viewer&#45;&gt;document#viewer -->
<g id="edge9" class="edge">
<title>folder#viewer-&gt;document#viewer</title>
<path fill="none" stroke="#000000" stroke-dasharray="5,2" d="M492.0182,-103.1222C451.7863,-114.8497 392.5807,-132.108 348.6607,-144.9106"/>
<polygon fill="#000000" stroke="#000000" points="347.5938,-141.5759 338.9728,-147.7346 349.5528,-148.2962 347.5938,-141.5759"/>
</g>
<!-- document#parent -->
<g id="node10" class="node">
<title>document#parent</title>
<ellipse fill="none" stroke="#000000" cx="595.0346" cy="-162" rx="78.154" ry="18"/>
<text text-anchor="middle" x="595.0346" y="-157.8" font-family="Times,serif" font-size="14.00" fill="#000000">document#parent</text>
</g>
<!-- folder#viewer&#45;&gt;document#parent -->
<g id="edge11" class="edge">
<title>folder#viewer-&gt;document#parent</title>
<path fill="none" stroke="#000000" d="M551.3717,-107.7978C558.2733,-116.3652 566.6783,-126.7991 574.2643,-136.2161"/>
<polygon fill="#000000" stroke="#000000" points="571.6625,-138.5656 580.6615,-144.1575 577.1138,-134.1742 571.6625,-138.5656"/>
</g>
<!-- folder -->
<g id="node9" class="node">
<title>folder</title>
<ellipse fill="none" stroke="#000000" cx="654.0346" cy="-90" rx="34.1871" ry="18"/>
<text text-anchor="middle" x="654.0346" y="-85.8" font-family="Times,serif" font-size="14.00" fill="#000000">folder</text>
</g>
<!-- folder&#45;&gt;document#parent -->
<g id="edge10" class="edge">
<title>folder-&gt;document#parent</title>
<path fill="none" stroke="#000000" d="M640.3506,-106.6992C633.17,-115.462 624.2144,-126.3909 616.1651,-136.2137"/>
<polygon fill="#000000" stroke="#000000" points="613.3068,-134.1797 609.6758,-144.1329 618.7212,-138.6165 613.3068,-134.1797"/>
</g>
</g>
</svg>