<?xml version="1.0" encoding="UTF-8" standalone="no"?><!DOCTYPE svg PUBLIC "-//W3C//DTD SVG 1.1//EN" "http://www.w3.org/Graphics/SVG/1.1/DTD/svg11.dtd"><!-- Generated by graphviz version 2.40.1 (20161225.0304)
 --><!-- Title: G Pages: 1 --><svg xmlns="http://www.w3.org/2000/svg" xmlns:xlink="http://www.w3.org/1999/xlink" width="727pt" height="188pt" viewBox="0.00 0.00 727.21 188.00">
<g id="graph0" class="graph" transform="scale(1 1) rotate(0) translate(4 184)">
<title>G</title>
<polygon fill="#ffffff" stroke="transparent" points="-4,4 -4,-184 723.2131,-184 723.2131,4 -4,4"/>
<!-- document -->
<g id="node1" class="node">
<title>document</title>
<ellipse fill="none" stroke="#000000" cx="49.1196" cy="-18" rx="49.2396" ry="18"/>
<text text-anchor="middle" x="49.1196" y="-13.8" font-family="Times,serif" font-size="14.00" fill="#000000">document</text>
</g>
<!-- group -->
<g id="node2" class="node">
<title>group</title>
<ellipse fill="none" stroke="#000000" cx="150.1196" cy="-18" rx="33.6305" ry="18"/>
<text text-anchor="middle" x="150.1196" y="-13.8" font-family="Times,serif" font-size="14.00" fill="#000000">group</text>
</g>
<!-- user -->
<g id="node3" class="node">
<title>user</title>
<ellipse fill="none" stroke="#000000" cx="229.1196" cy="-18" rx="27.2447" ry="18"/>
<text text-anchor="middle" x="229.1196" y="-13.8" font-family="Times,serif" font-size="14.00" fill="#000000">user</text>
</g>
<!-- document#viewer -->
<g id="node4" class="node">
<title>document#viewer</title>
<ellipse fill="none" stroke="#000000" cx="321.1196" cy="-162" rx="80.4403" ry="18"/>
<text text-anchor="middle" x="321.1196" y="-157.8" font-family="Times,serif" font-size="14.00" fill="#000000">document#viewer</text>
</g>
<!-- user&#45;&gt;document#viewer -->
<g id="edge1" class="edge">
<title>user-&gt;document#viewer</title>
<path fill="none" stroke="#000000" d="M207.7343,-29.573C203.0008,-31.8849 197.9535,-34.1637 193.1196,-36 135.4719,-57.9 96.6442,-23.0636 59.1196,-72 49.3836,-84.6969 49.0121,-95.5968 59.1196,-108 81.0257,-134.8815 166.5282,-148.7763 233.9766,-155.6883"/>
<polygon fill="#000000" stroke="#000000" points="233.9148,-159.1991 244.2102,-156.6984 234.6024,-152.233 233.9148,-159.1991"/>
</g>
<!-- group#member -->
<g id="node5" class="node">
<title>group#member</title>
<ellipse fill="none" stroke="#000000" cx="138.1196" cy="-90" rx="70.0693" ry="18"/>
<text text-anchor="middle" x="138.1196" y="-85.8" font-family="Times,serif" font-size="14.00" fill="#000000">group#member</text>
</g>
<!-- user&#45;&gt;group#member -->
<g id="edge2" class="edge">
<title>user-&gt;group#member</title>
<path fill="none" stroke="#000000" d="M211.5739,-31.8823C199.2261,-41.652 182.3938,-54.9699 167.9574,-66.3921"/>
<polygon fill="#000000" stroke="#000000" points="165.4569,-63.9075 159.7863,-72.8571 169.8003,-69.397 165.4569,-63.9075"/>
</g>
<!-- document#editor -->
<g id="node6" class="node">
<title>document#editor</title>
<ellipse fill="none" stroke="#000000" cx="321.1196" cy="-90" rx="76.4478" ry="18"/>
<text text-anchor="middle" x="321.1196" y="-85.8" font-family="Times,serif" font-size="14.00" fill="#000000">document#editor</text>
</g>
<!-- user&#45;&gt;document#editor -->
<g id="edge5" class="edge">
<title>user-&gt;document#editor</title>
<path fill="none" stroke="#000000" d="M246.8582,-31.8823C259.2544,-41.5837 276.1211,-54.7838 290.6474,-66.1522"/>
<polygon fill="#000000" stroke="#000000" points="288.8462,-69.1869 298.8783,-72.5938 293.1604,-63.6744 288.8462,-69.1869"/>
</g>
<!-- folder#viewer -->
<g id="node7" class="node">
<title>folder#viewer</title>
<ellipse fill="none" stroke="#000000" cx="568.1196" cy="-90" rx="65.3878" ry="18"/>
<text text-anchor="middle" x="568.1196" y="-85.8" font-family="Times,serif" font-size="14.00" fill="#000000">folder#viewer</text>
</g>
<!-- user&#45;&gt;folder#viewer -->
<g id="edge7" class="edge">
<title>user-&gt;folder#viewer</title>
<path fill="none" stroke="#000000" d="M255.5185,-23.0382C303.2546,-32.2245 407.0566,-52.5479 494.1196,-72 499.1521,-73.1244 504.3686,-74.3239 509.5964,-75.5496"/>
<polygon fill="#000000" stroke="#000000" points="509.0803,-79.0243 519.6181,-77.9262 510.6956,-72.2131 509.0803,-79.0243"/>
</g>
<!-- group#member&#45;&gt;document#viewer -->
<g id="edge4" class="edge">
<title>group#member-&gt;document#viewer</title>
<path fill="none" stroke="#000000" d="M176.4824,-105.0936C204.1922,-115.9957 241.8517,-130.8126 271.7965,-142.5942"/>
<polygon fill="#000000" stroke="#000000" points="270.6382,-145.8996 281.2253,-146.3039 273.2011,-139.3856 270.6382,-145.8996"/>
</g>
<!-- group#member&#45;&gt;group#member -->
<g id="edge3" class="edge">
<title>group#member-&gt;group#member</title>
<path fill="none" stroke="#000000" d="M185.6654,-76.7381C207.3257,-75.3841 226.1543,-79.8047 226.1543,-90 226.1543,-98.5226 212.997,-103.01 196.027,-103.462"/>
<polygon fill="#000000" stroke="#000000" points="195.7312,-99.9557 185.6654,-103.2619 195.5959,-106.9544 195.7312,-99.9557"/>
</g>
<!-- document#editor&#45;&gt;document#viewer -->
<g id="edge6" class="edge">
<title>document#editor-&gt;document#viewer</title>
<path fill="none" stroke="#000000" stroke-dasharray="1,5" d="M321.1196,-108.1686C321.1196,-115.869 321.1196,-125.0257 321.1196,-133.5834"/>
<polygon fill="#000000" stroke="#000000" points="317.6197,-133.5867 321.1196,-143.5867 324.6197,-133.5868 317.6197,-133.5867"/>
</g>
<!-- folder#viewer&#45;&gt;document#viewer -->
<g id="edge8" class="edge">
<title>folder#viewer-&gt;document#viewer</title>
<path fill="none" stroke="#000000" stroke-dasharray="5,2" d="M523.1032,-103.1222C482.8713,-114.8497 423.6657,-132.108 379.7457,-144.9106"/>
<polygon fill="#000000" stroke="#000000" points="378.6788,-141.5759 370.0578,-147.7346 380.6378,-148.2962 378.6788,-141.5759"/>
</g>
<!-- document#parent -->
<g id="node9" class="node">
<title>document#parent</title>
<ellipse fill="none" stroke="#000000" cx="626.1196" cy="-162" rx="78.154" ry="18"/>
<text text-anchor="middle" x="626.1196" y="-157.8" font-family="Times,serif" font-size="14.00" fill="#000000">document#parent</text>
</g>
<!-- folder#viewer&#45;&gt;document#parent -->
<g id="edge10" class="edge">
<title>folder#viewer-&gt;document#parent</title>
<path fill="none" stroke="#000000" d="M582.4567,-107.7978C589.3582,-116.3652 597.7633,-126.7991 605.3493,-136.2161"/>
<polygon fill="#000000" stroke="#000000" points="602.7475,-138.5656 611.7465,-144.1575 608.1988,-134.1742 602.7475,-138.5656"/>
</g>
<!-- folder -->
<g id="node8" class="node">
<title>folder</title>
<ellipse fill="none" stroke="#000000" cx="685.1196" cy="-90" rx="34.1871" ry="18"/>
<text text-anchor="middle" x="685.1196" y="-85.8" font-family="Times,serif" font-size="14.00" fill="#000000">folder</text>
</g>
<!-- folder&#45;&gt;document#parent -->
<g id="edge9" class="edge">
<title>folder-&gt;document#parent</title>
<path fill="none" stroke="#000000" d="M671.4356,-106.6992C664.2549,-115.462 655.2993,-126.3909 647.2501,-136.2137"/>
<polygon fill="#000000" stroke="#000000" points="644.3918,-134.1797 640.7607,-144.1329 649.8062,-138.6165 644.3918,-134.1797"/>
</g>
<!-- user:* -->
<g id="node10" class="node">
<title>user:*</title>
<ellipse fill="none" stroke="#000000" cx="450.1196" cy="-90" rx="34.769" ry="18"/>
<text text-anchor="middle" x="450.1196" y="-85.8" font-family="Times,serif" font-size="14.00" fill="#000000">user:*</text>
</g>
<!-- user:*&#45;&gt;document#viewer -->
<g id="edge11" class="edge">
<title>user:*-&gt;document#viewer</title>
<path fill="none" stroke="#000000" d="M426.459,-103.2059C408.0021,-113.5075 381.9659,-128.0393 360.3966,-140.078"/>
<polygon fill="#000000" stroke="#000000" points="358.4874,-137.1353 351.4612,-145.0652 361.899,-143.2477 358.4874,-137.1353"/>
</g>
</g>
</svg>