<?xml version="1.0" encoding="UTF-8" standalone="no"?><!DOCTYPE svg PUBLIC "-//W3C//DTD SVG 1.1//EN" "http://www.w3.org/Graphics/SVG/1.1/DTD/svg11.dtd"><!-- Generated by graphviz version 2.40.1 (20161225.0304)
 --><!-- Title: G Pages: 1 --><svg xmlns="http://www.w3.org/2000/svg" xmlns:xlink="http://www.w3.org/1999/xlink" width="210pt" height="310pt" viewBox="0.00 0.00 209.90 310.40">
<g id="graph0" class="graph" transform="scale(1 1) rotate(0) translate(4 306.4)">
<title>G</title>
<polygon fill="#ffffff" stroke="transparent" points="-4,4 -4,-306.4 205.8962,-306.4 205.8962,4 -4,4"/>
<!-- user -->
<g id="node1" class="node">
<title>user</title>
<ellipse fill="none" stroke="#000000" cx="58.7766" cy="-18" rx="27.2447" ry="18"/>
<text text-anchor="middle" x="58.7766" y="-13.8" font-family="Times,serif" font-size="14.00" fill="#000000">user</text>
</g>
<!-- document#a -->
<g id="node3" class="node">
<title>document#a</title>
<ellipse fill="none" stroke="#000000" cx="58.7766" cy="-106.8" rx="58.4706" ry="18"/>
<text text-anchor="middle" x="58.7766" y="-102.6" font-family="Times,serif" font-size="14.00" fill="#000000">document#a</text>
</g>
<!-- user&#45;&gt;document#a -->
<g id="edge1" class="edge">
<title>user-&gt;document#a</title>
<path fill="none" stroke="#000000" d="M58.7766,-36.3994C58.7766,-48.5051 58.7766,-64.5924 58.7766,-78.3326"/>
<polygon fill="#000000" stroke="#000000" points="55.2767,-78.7279 58.7766,-88.728 62.2767,-78.728 55.2767,-78.7279"/>
<text text-anchor="middle" x="62.2766" y="-58.2" font-family="Times,serif" font-size="14.00" fill="#000000">1</text>
</g>
<!-- document -->
<g id="node2" class="node">
<title>document</title>
<ellipse fill="none" stroke="#000000" cx="152.7766" cy="-18" rx="49.2396" ry="18"/>
<text text-anchor="middle" x="152.7766" y="-13.8" font-family="Times,serif" font-size="14.00" fill="#000000">document</text>
</g>
<!-- document#b -->
<g id="node4" class="node">
<title>document#b</title>
<ellipse fill="none" stroke="#000000" cx="58.7766" cy="-195.6" rx="58.554" ry="18"/>
<text text-anchor="middle" x="58.7766" y="-191.4" font-family="Times,serif" font-size="14.00" fill="#000000">document#b</text>
</g>
<!-- document#a&#45;&gt;document#b -->
<g id="edge2" class="edge">
<title>document#a-&gt;document#b</title>
<path fill="none" stroke="#000000" d="M58.7766,-125.1994C58.7766,-137.3051 58.7766,-153.3924 58.7766,-167.1326"/>
<polygon fill="#000000" stroke="#000000" points="55.2767,-167.5279 58.7766,-177.528 62.2767,-167.528 55.2767,-167.5279"/>
<text text-anchor="middle" x="62.2766" y="-147" font-family="Times,serif" font-size="14.00" fill="#000000">2</text>
</g>
<!-- document#c -->
<g id="node5" class="node">
<title>document#c</title>
<ellipse fill="none" stroke="#000000" cx="58.7766" cy="-284.4" rx="58.4706" ry="18"/>
<text text-anchor="middle" x="58.7766" y="-280.2" font-family="Times,serif" font-size="14.00" fill="#000000">document#c</text>
</g>
<!-- document#b&#45;&gt;document#c -->
<g id="edge3" class="edge">
<title>document#b-&gt;document#c</title>
<path fill="none" stroke="#000000" d="M58.7766,-213.9994C58.7766,-226.1051 58.7766,-242.1924 58.7766,-255.9326"/>
<polygon fill="#000000" stroke="#000000" points="55.2767,-256.3279 58.7766,-266.328 62.2767,-256.328 55.2767,-256.3279"/>
<text text-anchor="middle" x="62.2766" y="-235.8" font-family="Times,serif" font-size="14.00" fill="#000000">3</text>
</g>
</g>
</svg>