<?xml version="1.0" encoding="UTF-8" standalone="no"?><!DOCTYPE svg PUBLIC "-//W3C//DTD SVG 1.1//EN" "http://www.w3.org/Graphics/SVG/1.1/DTD/svg11.dtd"><!-- Generated by graphviz version 2.40.1 (20161225.0304)
 --><!-- Title: G Pages: 1 --><svg xmlns="http://www.w3.org/2000/svg" xmlns:xlink="http://www.w3.org/1999/xlink" width="489pt" height="310pt" viewBox="0.00 0.00 488.64 310.40">
<g id="graph0" class="graph" transform="scale(1 1) rotate(0) translate(4 306.4)">
<title>G</title>
<polygon fill="#ffffff" stroke="transparent" points="-4,4 -4,-306.4 484.6421,-306.4 484.6421,4 -4,4"/>
<!-- user -->
<g id="node1" class="node">
<title>user</title>
<ellipse fill="none" stroke="#000000" cx="166.0769" cy="-18" rx="27.2447" ry="18"/>
<text text-anchor="middle" x="166.0769" y="-13.8" font-family="Times,serif" font-size="14.00" fill="#000000">user</text>
</g>
<!-- group#member -->
<g id="node5" class="node">
<title>group#member</title>
<ellipse fill="none" stroke="#000000" cx="166.0769" cy="-106.8" rx="70.0693" ry="18"/>
<text text-anchor="middle" x="166.0769" y="-102.6" font-family="Times,serif" font-size="14.00" fill="#000000">group#member</text>
</g>
<!-- user&#45;&gt;group#member -->
<g id="edge1" class="edge">
<title>user-&gt;group#member</title>
<path fill="none" stroke="#000000" d="M166.0769,-36.3994C166.0769,-48.5051 166.0769,-64.5924 166.0769,-78.3326"/>
<polygon fill="#000000" stroke="#000000" points="162.577,-78.7279 166.0769,-88.728 169.577,-78.728 162.577,-78.7279"/>
<text text-anchor="middle" x="169.5769" y="-58.2" font-family="Times,serif" font-size="14.00" fill="#000000">1</text>
</g>
<!-- document -->
<g id="node2" class="node">
<title>document</title>
<ellipse fill="none" stroke="#000000" cx="260.0769" cy="-18" rx="49.2396" ry="18"/>
<text text-anchor="middle" x="260.0769" y="-13.8" font-family="Times,serif" font-size="14.00" fill="#000000">document</text>
</g>
<!-- folder -->
<g id="node3" class="node">
<title>folder</title>
<ellipse fill="none" stroke="#000000" cx="361.0769" cy="-18" rx="34.1871" ry="18"/>
<text text-anchor="middle" x="361.0769" y="-13.8" font-family="Times,serif" font-size="14.00" fill="#000000">folder</text>
</g>
<!-- group -->
<g id="node4" class="node">
<title>group</title>
<ellipse fill="none" stroke="#000000" cx="447.0769" cy="-18" rx="33.6305" ry="18"/>
<text text-anchor="middle" x="447.0769" y="-13.8" font-family="Times,serif" font-size="14.00" fill="#000000">group</text>
</g>
<!-- folder#viewer -->
<g id="node6" class="node">
<title>folder#viewer</title>
<ellipse fill="none" stroke="#000000" cx="166.0769" cy="-195.6" rx="65.3878" ry="18"/>
<text text-anchor="middle" x="166.0769" y="-191.4" font-family="Times,serif" font-size="14.00" fill="#000000">folder#viewer</text>
</g>
<!-- group#member&#45;&gt;folder#viewer -->
<g id="edge2" class="edge">
<title>group#member-&gt;folder#viewer</title>
<path fill="none" stroke="#000000" d="M166.0769,-125.1994C166.0769,-137.3051 166.0769,-153.3924 166.0769,-167.1326"/>
<polygon fill="#000000" stroke="#000000" points="162.577,-167.5279 166.0769,-177.528 169.577,-167.528 162.577,-167.5279"/>
<text text-anchor="middle" x="169.5769" y="-147" font-family="Times,serif" font-size="14.00" fill="#000000">2</text>
</g>
<!-- document#parent -->
<g id="node7" class="node">
<title>document#parent</title>
<ellipse fill="none" stroke="#000000" cx="78.0769" cy="-284.4" rx="78.154" ry="18"/>
<text text-anchor="middle" x="78.0769" y="-280.2" font-family="Times,serif" font-size="14.00" fill="#000000">document#parent</text>
</g>
<!-- folder#viewer&#45;&gt;document#parent -->
<g id="edge3" class="edge">
<title>folder#viewer-&gt;document#parent</title>
<path fill="none" stroke="#000000" d="M148.691,-213.144C135.6387,-226.3149 117.5816,-244.5362 102.9948,-259.2557"/>
<polygon fill="#000000" stroke="#000000" points="100.281,-257.0218 95.728,-266.5885 105.2531,-261.9491 100.281,-257.0218"/>
<text text-anchor="middle" x="133.5769" y="-235.8" font-family="Times,serif" font-size="14.00" fill="#000000">3</text>
</g>
<!-- document#viewer -->
<g id="node8" class="node">
<title>document#viewer</title>
<ellipse fill="none" stroke="#000000" cx="254.0769" cy="-284.4" rx="80.4403" ry="18"/>
<text text-anchor="middle" x="254.0769" y="-280.2" font-family="Times,serif" font-size="14.00" fill="#000000">document#viewer</text>
</g>
<!-- folder#viewer&#45;&gt;document#viewer -->
<g id="edge4" class="edge">
<title>folder#viewer-&gt;document#viewer</title>
<path fill="none" stroke="#000000" stroke-dasharray="5,2" d="M183.4629,-213.144C196.5152,-226.3149 214.5723,-244.5362 229.1591,-259.2557"/>
<polygon fill="#000000" stroke="#000000" points="226.9008,-261.9491 236.4259,-266.5885 231.8729,-257.0218 226.9008,-261.9491"/>
<text text-anchor="middle" x="221.5769" y="-235.8" font-family="Times,serif" font-size="14.00" fill="#000000">4</text>
</g>
</g>
</svg>