<?xml version="1.0" encoding="UTF-8" standalone="no"?><!DOCTYPE svg PUBLIC "-//W3C//DTD SVG 1.1//EN" "http://www.w3.org/Graphics/SVG/1.1/DTD/svg11.dtd"><!-- Generated by graphviz version 2.40.1 (20161225.0304)
 --><!-- Title: G Pages: 1 --><svg xmlns="http://www.w3.org/2000/svg" xmlns:xlink="http://www.w3.org/1999/xlink" width="697pt" height="188pt" viewBox="0.00 0.00 697.13 188.00">
<g id="graph0" class="graph" transform="scale(1 1) rotate(0) translate(4 184)">
<title>G</title>
<polygon fill="#ffffff" stroke="transparent" points="-4,4 -4,-184 693.1281,-184 693.1281,4 -4,4"/>
<!-- user -->
<g id="node1" class="node">
<title>user</title>
<ellipse fill="none" stroke="#000000" cx="305.0346" cy="-18" rx="27.2447" ry="18"/>
<text text-anchor="middle" x="305.0346" y="-13.8" font-family="Times,serif" font-size="14.00" fill="#000000">user</text>
</g>
<!-- group#member -->
<g id="node2" class="node">
<title>group#member</title>
<ellipse fill="none" stroke="#000000" cx="70.0346" cy="-90" rx="70.0693" ry="18"/>
<text text-anchor="middle" x="70.0346" y="-85.8" font-family="Times,serif" font-size="14.00" fill="#000000">group#member</text>
</g>
<!-- user&#45;&gt;group#member -->
<g id="edge1" class="edge">
<title>user-&gt;group#member</title>
<path fill="none" stroke="#000000" d="M280.3297,-25.5692C243.7276,-36.7834 174.1423,-58.1032 125.0621,-73.1405"/>
<polygon fill="#000000" stroke="#000000" points="123.7636,-69.8777 115.2276,-76.1536 125.8143,-76.5706 123.7636,-69.8777"/>
</g>
<!-- document#editor -->
<g id="node4" class="node">
<title>document#editor</title>
<ellipse fill="#add8e6" stroke="#000000" cx="253.0346" cy="-90" rx="76.4478" ry="18"/>
<text text-anchor="middle" x="253.0346" y="-85.8" font-family="Times,serif" font-size="14.00" fill="#000000">document#editor</text>
</g>
<!-- user&#45;&gt;document#editor -->
<g id="edge4" class="edge">
<title>user-&gt;document#editor</title>
<path fill="none" stroke="#000000" d="M293.235,-34.3379C286.9311,-43.0664 279.0206,-54.0195 271.888,-63.8953"/>
<polygon fill="#000000" stroke="#000000" points="268.8978,-62.0578 265.8802,-72.2138 274.5726,-66.1562 268.8978,-62.0578"/>
</g>
<!-- document#viewer -->
<g id="node6" class="node">
<title>document#viewer</title>
<ellipse fill="#ff00ff" stroke="#000000" cx="357.0346" cy="-162" rx="80.4403" ry="18"/>
<text text-anchor="middle" x="357.0346" y="-157.8" font-family="Times,serif" font-size="14.00" fill="#000000">document#viewer</text>
</g>
<!-- user&#45;&gt;document#viewer -->
<g id="edge5" class="edge">
<title>user-&gt;document#viewer</title>
<path fill="none" stroke="#000000" d="M316.9912,-34.2486C324.0718,-44.5869 332.6781,-58.5226 338.0346,-72 345.9728,-91.9729 350.8157,-115.8202 353.6239,-133.9478"/>
<polygon fill="#000000" stroke="#000000" points="350.1652,-134.4862 355.0502,-143.8877 357.0943,-133.4919 350.1652,-134.4862"/>
</g>
<!-- folder#viewer -->
<g id="node7" class="node">
<title>folder#viewer</title>
<ellipse fill="none" stroke="#000000" cx="538.0346" cy="-90" rx="65.3878" ry="18"/>
<text text-anchor="middle" x="538.0346" y="-85.8" font-family="Times,serif" font-size="14.00" fill="#000000">folder#viewer</text>
</g>
<!-- user&#45;&gt;folder#viewer -->
<g id="edge7" class="edge">
<title>user-&gt;folder#viewer</title>
<path fill="none" stroke="#000000" d="M326.4271,-29.5544C331.1601,-31.8675 336.2055,-34.1514 341.0346,-36 366.2872,-45.6667 431.3573,-62.978 479.8475,-75.3963"/>
<polygon fill="#000000" stroke="#000000" points="479.06,-78.8074 489.6149,-77.8891 480.7911,-72.0248 479.06,-78.8074"/>
</g>
<!-- group#member&#45;&gt;group#member -->
<g id="edge2" class="edge">
<title>group#member-&gt;group#member</title>
<path fill="none" stroke="#000000" d="M117.5804,-76.7381C139.2407,-75.3841 158.0693,-79.8047 158.0693,-90 158.0693,-98.5226 144.912,-103.01 127.942,-103.462"/>
<polygon fill="#000000" stroke="#000000" points="127.6462,-99.9557 117.5804,-103.2619 127.5109,-106.9544 127.6462,-99.9557"/>
</g>
<!-- group#member&#45;&gt;document#viewer -->
<g id="edge3" class="edge">
<title>group#member-&gt;document#viewer</title>
<path fill="none" stroke="#000000" d="M120.3546,-102.6238C168.5328,-114.7103 241.3988,-132.9903 293.5458,-146.0725"/>
<polygon fill="#000000" stroke="#000000" points="292.8068,-149.4955 303.3579,-148.5341 294.5102,-142.7059 292.8068,-149.4955"/>
</g>
<!-- document -->
<g id="node3" class="node">
<title>document</title>
<ellipse fill="none" stroke="#000000" cx="399.0346" cy="-18" rx="49.2396" ry="18"/>
<text text-anchor="middle" x="399.0346" y="-13.8" font-family="Times,serif" font-size="14.00" fill="#000000">document</text>
</g>
<!-- document#editor&#45;&gt;document#viewer -->
<g id="edge6" class="edge">
<title>document#editor-&gt;document#viewer</title>
<path fill="none" stroke="#ff0000" stroke-dasharray="1,5" d="M277.6812,-107.063C291.4393,-116.5878 308.7687,-128.5851 323.7208,-138.9365"/>
<polygon fill="#ff0000" stroke="#ff0000" points="321.9904,-141.9955 332.2046,-144.81 325.9749,-136.2401 321.9904,-141.9955"/>
</g>
<!-- group -->
<g id="node5" class="node">
<title>group</title>
<ellipse fill="none" stroke="#000000" cx="500.0346" cy="-18" rx="33.6305" ry="18"/>
<text text-anchor="middle" x="500.0346" y="-13.8" font-family="Times,serif" font-size="14.00" fill="#000000">group</text>
</g>
<!-- folder#viewer&#45;&gt;document#viewer -->
<g id="edge8" class="edge">
<title>folder#viewer-&gt;document#viewer</title>
<path fill="none" stroke="#000000" stroke-dasharray="5,2" d="M500.5313,-104.9184C473.1549,-115.8085 435.7886,-130.6725 406.0494,-142.5024"/>
<polygon fill="#000000" stroke="#000000" points="404.6823,-139.2794 396.6842,-146.2278 407.2697,-145.7837 404.6823,-139.2794"/>
</g>
<!-- document#parent -->
<g id="node9" class="node">
<title>document#parent</title>
<ellipse fill="none" stroke="#000000" cx="596.0346" cy="-162" rx="78.154" ry="18"/>
<text text-anchor="middle" x="596.0346" y="-157.8" font-family="Times,serif" font-size="14.00" fill="#000000">document#parent</text>
</g>
<!-- folder#viewer&#45;&gt;document#parent -->
<g id="edge10" class="edge">
<title>folder#viewer-&gt;document#parent</title>
<path fill="none" stroke="#000000" d="M552.3717,-107.7978C559.2733,-116.3652 567.6783,-126.7991 575.2643,-136.2161"/>
<polygon fill="#000000" stroke="#000000" points="572.6625,-138.5656 581.6615,-144.1575 578.1138,-134.1742 572.6625,-138.5656"/>
</g>
<!-- folder -->
<g id="node8" class="node">
<title>folder</title>
<ellipse fill="none" stroke="#000000" cx="655.0346" cy="-90" rx="34.1871" ry="18"/>
<text text-anchor="middle" x="655.0346" y="-85.8" font-family="Times,serif" font-size="14.00" fill="#000000">folder</text>
</g>
<!-- folder&#45;&gt;document#parent -->
<g id="edge9" class="edge">
<title>folder-&gt;document#parent</title>
<path fill="none" stroke="#000000" d="M641.3506,-106.6992C634.17,-115.462 625.2144,-126.3909 617.1651,-136.2137"/>
<polygon fill="#000000" stroke="#000000" points="614.3068,-134.1797 610.6758,-144.1329 619.7212,-138.6165 614.3068,-134.1797"/>
</g>
<!-- user:* -->
<g id="node10" class="node">
<title>user:*</title>
<ellipse fill="none" stroke="#000000" cx="420.0346" cy="-90" rx="34.769" ry="18"/>
<text text-anchor="middle" x="420.0346" y="-85.8" font-family="Times,serif" font-size="14.00" fill="#000000">user:*</text>
</g>
<!-- user:*&#45;&gt;document#viewer -->
<g id="edge11" class="edge">
<title>user:*-&gt;document#viewer</title>
<path fill="none" stroke="#000000" d="M405.4228,-106.6992C397.6787,-115.5496 388.0012,-126.6097 379.3401,-136.508"/>
<polygon fill="#000000" stroke="#000000" points="376.6194,-134.3023 372.6684,-144.1329 381.8875,-138.9119 376.6194,-134.3023"/>
</g>
</g>
</svg>