<?xml version="1.0" encoding="UTF-8" standalone="no"?><!DOCTYPE svg PUBLIC "-//W3C//DTD SVG 1.1//EN" "http://www.w3.org/Graphics/SVG/1.1/DTD/svg11.dtd"><!-- Generated by graphviz version 2.40.1 (20161225.0304)
 --><!-- Title: G Pages: 1 --><svg xmlns="http://www.w3.org/2000/svg" xmlns:xlink="http://www.w3.org/1999/xlink" width="677pt" height="188pt" viewBox="0.00 0.00 676.65 188.00">
<g id="graph0" class="graph" transform="scale(1 1) rotate(0) translate(4 184)">
<title>G</title>
<polygon fill="#ffffff" stroke="transparent" points="-4,4 -4,-184 672.6485,-184 672.6485,4 -4,4"/>
<!-- folder#viewer -->
<g id="node1" class="node">
<title>folder#viewer</title>
<ellipse fill="#add8e6" stroke="#000000" cx="517.5551" cy="-90" rx="65.3878" ry="18"/>
<text text-anchor="middle" x="517.5551" y="-85.8" font-family="Times,serif" font-size="14.00" fill="#000000">folder#viewer</text>
</g>
<!-- document#viewer -->
<g id="node2" class="node">
<title>document#viewer</title>
<ellipse fill="#ff00ff" stroke="#000000" cx="270.5551" cy="-162" rx="80.4403" ry="18"/>
<text text-anchor="middle" x="270.5551" y="-157.8" font-family="Times,serif" font-size="14.00" fill="#000000">document#viewer</text>
</g>
<!-- folder#viewer&#45;&gt;document#viewer -->
<g id="edge8" class="edge">
<title>folder#viewer-&gt;document#viewer</title>
<path fill="none" stroke="#ff0000" stroke-dasharray="5,2" d="M472.5387,-103.1222C432.3067,-114.8497 373.1011,-132.108 329.1812,-144.9106"/>
<polygon fill="#ff0000" stroke="#ff0000" points="328.1142,-141.5759 319.4933,-147.7346 330.0732,-148.2962 328.1142,-141.5759"/>
</g>
<!-- document#parent -->
<g id="node7" class="node">
<title>document#parent</title>
<ellipse fill="#c0c0c0" stroke="#000000" cx="575.5551" cy="-162" rx="78.154" ry="18"/>
<text text-anchor="middle" x="575.5551" y="-157.8" font-family="Times,serif" font-size="14.00" fill="#000000">document#parent</text>
</g>
<!-- folder#viewer&#45;&gt;document#parent -->
<g id="edge10" class="edge">
<title>folder#viewer-&gt;document#parent</title>
<path fill="none" stroke="#000000" d="M531.8922,-107.7978C538.7937,-116.3652 547.1988,-126.7991 554.7847,-136.2161"/>
<polygon fill="#000000" stroke="#000000" points="552.1829,-138.5656 561.1819,-144.1575 557.6342,-134.1742 552.1829,-138.5656"/>
</g>
<!-- user -->
<g id="node3" class="node">
<title>user</title>
<ellipse fill="none" stroke="#000000" cx="178.5551" cy="-18" rx="27.2447" ry="18"/>
<text text-anchor="middle" x="178.5551" y="-13.8" font-family="Times,serif" font-size="14.00" fill="#000000">user</text>
</g>
<!-- user&#45;&gt;folder#viewer -->
<g id="edge7" class="edge">
<title>user-&gt;folder#viewer</title>
<path fill="none" stroke="#000000" d="M199.4188,-29.7814C204.2696,-32.1369 209.4972,-34.381 214.5551,-36 312.6785,-67.4087 342.5255,-51.8074 443.5551,-72 448.8223,-73.0527 454.2813,-74.2247 459.7386,-75.4514"/>
<polygon fill="#000000" stroke="#000000" points="458.9875,-78.87 469.5181,-77.7049 460.5594,-72.0488 458.9875,-78.87"/>
</g>
<!-- user&#45;&gt;document#viewer -->
<g id="edge5" class="edge">
<title>user-&gt;document#viewer</title>
<path fill="none" stroke="#000000" d="M151.6529,-21.6032C93.8558,-30.4167 -33.6371,-56.2249 8.5551,-108 30.4612,-134.8815 115.9636,-148.7763 183.4121,-155.6883"/>
<polygon fill="#000000" stroke="#000000" points="183.3502,-159.1991 193.6457,-156.6984 184.0378,-152.233 183.3502,-159.1991"/>
</g>
<!-- group#member -->
<g id="node4" class="node">
<title>group#member</title>
<ellipse fill="none" stroke="#000000" cx="87.5551" cy="-90" rx="70.0693" ry="18"/>
<text text-anchor="middle" x="87.5551" y="-85.8" font-family="Times,serif" font-size="14.00" fill="#000000">group#member</text>
</g>
<!-- user&#45;&gt;group#member -->
<g id="edge1" class="edge">
<title>user-&gt;group#member</title>
<path fill="none" stroke="#000000" d="M161.0094,-31.8823C148.6616,-41.652 131.8293,-54.9699 117.3928,-66.3921"/>
<polygon fill="#000000" stroke="#000000" points="114.8923,-63.9075 109.2218,-72.8571 119.2357,-69.397 114.8923,-63.9075"/>
</g>
<!-- document#editor -->
<g id="node5" class="node">
<title>document#editor</title>
<ellipse fill="none" stroke="#000000" cx="270.5551" cy="-90" rx="76.4478" ry="18"/>
<text text-anchor="middle" x="270.5551" y="-85.8" font-family="Times,serif" font-size="14.00" fill="#000000">document#editor</text>
</g>
<!-- user&#45;&gt;document#editor -->
<g id="edge4" class="edge">
<title>user-&gt;document#editor</title>
<path fill="none" stroke="#000000" d="M196.2936,-31.8823C208.6898,-41.5837 225.5566,-54.7838 240.0829,-66.1522"/>
<polygon fill="#000000" stroke="#000000" points="238.2816,-69.1869 248.3138,-72.5938 242.5958,-63.6744 238.2816,-69.1869"/>
</g>
<!-- group#member&#45;&gt;document#viewer -->
<g id="edge3" class="edge">
<title>group#member-&gt;document#viewer</title>
<path fill="none" stroke="#000000" d="M125.9179,-105.0936C153.6276,-115.9957 191.2871,-130.8126 221.2319,-142.5942"/>
<polygon fill="#000000" stroke="#000000" points="220.0737,-145.8996 230.6608,-146.3039 222.6366,-139.3856 220.0737,-145.8996"/>
</g>
<!-- group#member&#45;&gt;group#member -->
<g id="edge2" class="edge">
<title>group#member-&gt;group#member</title>
<path fill="none" stroke="#000000" d="M135.1008,-76.7381C156.7611,-75.3841 175.5897,-79.8047 175.5897,-90 175.5897,-98.5226 162.4324,-103.01 145.4624,-103.462"/>
<polygon fill="#000000" stroke="#000000" points="145.1666,-99.9557 135.1008,-103.2619 145.0313,-106.9544 145.1666,-99.9557"/>
</g>
<!-- document#editor&#45;&gt;document#viewer -->
<g id="edge6" class="edge">
<title>document#editor-&gt;document#viewer</title>
<path fill="none" stroke="#000000" stroke-dasharray="1,5" d="M270.5551,-108.1686C270.5551,-115.869 270.5551,-125.0257 270.5551,-133.5834"/>
<polygon fill="#000000" stroke="#000000" points="267.0552,-133.5867 270.5551,-143.5867 274.0552,-133.5868 267.0552,-133.5867"/>
</g>
<!-- folder -->
<g id="node6" class="node">
<title>folder</title>
<ellipse fill="none" stroke="#000000" cx="634.5551" cy="-90" rx="34.1871" ry="18"/>
<text text-anchor="middle" x="634.5551" y="-85.8" font-family="Times,serif" font-size="14.00" fill="#000000">folder</text>
</g>
<!-- folder&#45;&gt;document#parent -->
<g id="edge9" class="edge">
<title>folder-&gt;document#parent</title>
<path fill="none" stroke="#000000" d="M620.871,-106.6992C613.6904,-115.462 604.7348,-126.3909 596.6855,-136.2137"/>
<polygon fill="#000000" stroke="#000000" points="593.8273,-134.1797 590.1962,-144.1329 599.2416,-138.6165 593.8273,-134.1797"/>
</g>
<!-- user:* -->
<g id="node8" class="node">
<title>user:*</title>
<ellipse fill="none" stroke="#000000" cx="399.5551" cy="-90" rx="34.769" ry="18"/>
<text text-anchor="middle" x="399.5551" y="-85.8" font-family="Times,serif" font-size="14.00" fill="#000000">user:*</text>
</g>
<!-- user:*&#45;&gt;document#viewer -->
<g id="edge11" class="edge">
<title>user:*-&gt;document#viewer</title>
<path fill="none" stroke="#000000" d="M375.8945,-103.2059C357.4375,-113.5075 331.4013,-128.0393 309.832,-140.078"/>
<polygon fill="#000000" stroke="#000000" points="307.9228,-137.1353 300.8966,-145.0652 311.3344,-143.2477 307.9228,-137.1353"/>
</g>
<!-- document -->
<g id="node9" class="node">
<title>document</title>
<ellipse fill="none" stroke="#000000" cx="272.5551" cy="-18" rx="49.2396" ry="18"/>
<text text-anchor="middle" x="272.5551" y="-13.8" font-family="Times,serif" font-size="14.00" fill="#000000">document</text>
</g>
<!-- group -->
<g id="node10" class="node">
<title>group</title>
<ellipse fill="none" stroke="#000000" cx="373.5551" cy="-18" rx="33.6305" ry="18"/>
<text text-anchor="middle" x="373.5551" y="-13.8" font-family="Times,serif" font-size="14.00" fill="#000000">group</text>
</g>
</g>
</svg>