<?xml version="1.0" encoding="UTF-8" standalone="no"?>
<!DOCTYPE svg PUBLIC "-//W3C//DTD SVG 1.1//EN"
 "http://www.w3.org/Graphics/SVG/1.1/DTD/svg11.dtd">
<!-- Generated by graphviz version 2.40.1 (20161225.0304)
 -->
<!-- Title: %0 Pages: 1 -->
<svg width="207pt" height="241pt"
 viewBox="0.00 0.00 207.01 240.80" xmlns="http://www.w3.org/2000/svg" xmlns:xlink="http://www.w3.org/1999/xlink">
<g id="graph0" class="graph" transform="scale(1 1) rotate(0) translate(4 236.8)">
<title>%0</title>
<polygon fill="#ffffff" stroke="transparent" points="-4,4 -4,-236.8 203.0114,-236.8 203.0114,4 -4,4"/>
<!-- user -->
<g id="node1" class="node">
<title>user</title>
<ellipse fill="#00ffff" stroke="#00ffff" cx="101.2348" cy="-18" rx="27.2447" ry="18"/>
<text text-anchor="middle" x="101.2348" y="-13.8" font-family="Times,serif" font-size="14.00" fill="#000000">user</text>
</g>
<!-- document#a -->
<g id="node2" class="node">
<title>document#a</title>
<ellipse fill="none" stroke="#000000" cx="58.2348" cy="-106.8" rx="58.4706" ry="18"/>
<text text-anchor="middle" x="58.2348" y="-102.6" font-family="Times,serif" font-size="14.00" fill="#000000">document#a</text>
</g>
<!-- user&#45;&gt;document#a -->
<g id="edge1" class="edge">
<title>user&#45;&gt;document#a</title>
<path fill="none" stroke="#000000" d="M92.7394,-35.544C86.6542,-48.1108 78.3426,-65.2752 71.4017,-79.6088"/>
<polygon fill="#000000" stroke="#000000" points="68.068,-78.4627 66.8598,-88.9885 74.3682,-81.5136 68.068,-78.4627"/>
<text text-anchor="middle" x="87.7348" y="-58.2" font-family="Times,serif" font-size="14.00" fill="#000000">1</text>
</g>
<!-- document#b -->
<g id="node3" class="node">
<title>document#b</title>
<ellipse fill="none" stroke="#000000" cx="140.2348" cy="-160.8" rx="58.554" ry="18"/>
<text text-anchor="middle" x="140.2348" y="-156.6" font-family="Times,serif" font-size="14.00" fill="#000000">document#b</text>
</g>
<!-- user&#45;&gt;document#b -->
<g id="edge2" class="edge">
<title>user&#45;&gt;document#b</title>
<path fill="none" stroke="#000000" d="M107.8538,-35.5648C113.0488,-49.7805 120.2175,-70.3929 125.2348,-88.8 129.1297,-103.089 132.5745,-119.2107 135.1775,-132.5708"/>
<polygon fill="#000000" stroke="#000000" points="131.7781,-133.4311 137.077,-142.6056 138.6559,-132.1291 131.7781,-133.4311"/>
<text text-anchor="middle" x="122.7348" y="-58.2" font-family="Times,serif" font-size="14.00" fill="#000000">3</text>
</g>
<!-- document#c -->
<g id="node4" class="node">
<title>document#c</title>
<ellipse fill="#ff00ff" stroke="#ff00ff" cx="65.2348" cy="-214.8" rx="58.4706" ry="18"/>
<text text-anchor="middle" x="65.2348" y="-210.6" font-family="Times,serif" font-size="14.00" fill="#000000">document#c</text>
</g>
<!-- document#a&#45;&gt;document#c -->
<g id="edge3" class="edge">
<title>document#a&#45;&gt;document#c</title>
<path fill="none" stroke="#000000" stroke-dasharray="5,2" d="M59.4223,-125.1207C60.5149,-141.979 62.1519,-167.2349 63.4105,-186.653"/>
<polygon fill="#000000" stroke="#000000" points="59.9254,-186.9972 64.0649,-196.7498 66.9107,-186.5444 59.9254,-186.9972"/>
<text text-anchor="middle" x="66.7348" y="-156.6" font-family="Times,serif" font-size="14.00" fill="#000000">7</text>
</g>
</g>
</svg>