<?xml version="1.0" encoding="UTF-8" standalone="no"?>
<!DOCTYPE svg PUBLIC "-//W3C//DTD SVG 1.1//EN"
        "http://www.w3.org/Graphics/SVG/1.1/DTD/svg11.dtd">
<!-- Generated by graphviz version 9.0.0 (20230911.1827)
 -->
<!-- Pages: 1 -->
<svg width="332pt" height="221pt"
     viewBox="0.00 0.00 331.86 221.00" xmlns="http://www.w3.org/2000/svg" xmlns:xlink="http://www.w3.org/1999/xlink">
    <g id="graph0" class="graph" transform="scale(1 1) rotate(0) translate(4 217)">
        <polygon fill="white" stroke="none" points="-4,4 -4,-217 327.86,-217 327.86,4 -4,4"/>
        <!-- 2 -->
        <g id="node1" class="node">
            <title>2</title>
            <ellipse fill="none" stroke="black" cx="75.41" cy="-18" rx="75.41" ry="18"/>
            <text text-anchor="middle" x="75.41" y="-12.95" font-family="Times,serif" font-size="14.00">document#parent</text>
        </g>
        <!-- 3 -->
        <g id="node2" class="node">
            <title>3</title>
            <ellipse fill="none" stroke="black" cx="75.41" cy="-106.5" rx="32.93" ry="18"/>
            <text text-anchor="middle" x="75.41" y="-101.45" font-family="Times,serif" font-size="14.00">folder</text>
        </g>
        <!-- 2&#45;&gt;3 -->
        <g id="edge1" class="edge">
            <title>2&#45;&gt;3</title>
            <path fill="none" stroke="black" d="M75.41,-36.09C75.41,-47.74 75.41,-63.45 75.41,-76.98"/>
            <polygon fill="black" stroke="black" points="71.91,-76.64 75.41,-86.64 78.91,-76.64 71.91,-76.64"/>
            <text text-anchor="middle" x="78.78" y="-57.2" font-family="Times,serif" font-size="14.00">1</text>
        </g>
        <!-- 4 -->
        <g id="node3" class="node">
            <title>4</title>
            <ellipse fill="none" stroke="black" cx="246.41" cy="-18" rx="77.45" ry="18"/>
            <text text-anchor="middle" x="246.41" y="-12.95" font-family="Times,serif" font-size="14.00">document#viewer</text>
        </g>
        <!-- 5 -->
        <g id="node4" class="node">
            <title>5</title>
            <ellipse fill="none" stroke="black" cx="246.41" cy="-106.5" rx="62.61" ry="18"/>
            <text text-anchor="middle" x="246.41" y="-101.45" font-family="Times,serif" font-size="14.00">folder#viewer</text>
        </g>
        <!-- 4&#45;&gt;5 -->
        <g id="edge2" class="edge">
            <title>4&#45;&gt;5</title>
            <path fill="none" stroke="black" d="M246.41,-36.09C246.41,-47.74 246.41,-63.45 246.41,-76.98"/>
            <polygon fill="black" stroke="black" points="242.91,-76.64 246.41,-86.64 249.91,-76.64 242.91,-76.64"/>
            <text text-anchor="middle" x="249.78" y="-57.2" font-family="Times,serif" font-size="14.00">2</text>
            <text text-anchor="middle" x="194.66" y="-74.85" font-family="Times,serif" font-size="14.00">(document#parent)</text>
        </g>
        <!-- 7 -->
        <g id="node5" class="node">
            <title>7</title>
            <ellipse fill="none" stroke="black" cx="246.41" cy="-195" rx="27" ry="18"/>
            <text text-anchor="middle" x="246.41" y="-189.95" font-family="Times,serif" font-size="14.00">user</text>
        </g>
        <!-- 5&#45;&gt;7 -->
        <g id="edge3" class="edge">
            <title>5&#45;&gt;7</title>
            <path fill="none" stroke="black" d="M246.41,-124.59C246.41,-136.24 246.41,-151.95 246.41,-165.48"/>
            <polygon fill="black" stroke="black" points="242.91,-165.14 246.41,-175.14 249.91,-165.14 242.91,-165.14"/>
            <text text-anchor="middle" x="249.78" y="-145.7" font-family="Times,serif" font-size="14.00">3</text>
        </g>
    </g>
</svg>
