<?xml version="1.0" encoding="UTF-8" standalone="no"?><!DOCTYPE svg PUBLIC "-//W3C//DTD SVG 1.1//EN" "http://www.w3.org/Graphics/SVG/1.1/DTD/svg11.dtd"><!-- Generated by graphviz version 2.40.1 (20161225.0304)
 --><!-- Title: G Pages: 1 --><svg xmlns="http://www.w3.org/2000/svg" xmlns:xlink="http://www.w3.org/1999/xlink" width="423pt" height="260pt" viewBox="0.00 0.00 422.62 260.00">
<g id="graph0" class="graph" transform="scale(1 1) rotate(0) translate(4 256)">
<title>G</title>
<polygon fill="#ffffff" stroke="transparent" points="-4,4 -4,-256 418.6194,-256 418.6194,4 -4,4"/>
<!-- document:1#viewer -->
<g id="node1" class="node">
<title>document:1#viewer</title>
<ellipse fill="none" stroke="#000000" cx="250.5901" cy="-234" rx="87.9645" ry="18"/>
<text text-anchor="middle" x="250.5901" y="-229.8" font-family="Times,serif" font-size="14.00" fill="#000000">document:1#viewer</text>
</g>
<!-- intersection -->
<g id="node2" class="node">
<title>intersection</title>
<ellipse fill="none" stroke="#000000" cx="250.5901" cy="-162" rx="56.1744" ry="18"/>
<text text-anchor="middle" x="250.5901" y="-157.8" font-family="Times,serif" font-size="14.00" fill="#000000">intersection</text>
</g>
<!-- document:1#viewer&#45;&gt;intersection -->
<g id="edge1" class="edge">
<title>document:1#viewer-&gt;intersection</title>
<path fill="none" stroke="#000000" d="M250.5901,-215.8314C250.5901,-208.131 250.5901,-198.9743 250.5901,-190.4166"/>
<polygon fill="#000000" stroke="#000000" points="254.0902,-190.4132 250.5901,-180.4133 247.0902,-190.4133 254.0902,-190.4132"/>
</g>
<!-- union -->
<g id="node3" class="node">
<title>union</title>
<ellipse fill="none" stroke="#000000" cx="179.5901" cy="-90" rx="33.0682" ry="18"/>
<text text-anchor="middle" x="179.5901" y="-85.8" font-family="Times,serif" font-size="14.00" fill="#000000">union</text>
</g>
<!-- intersection&#45;&gt;union -->
<g id="edge2" class="edge">
<title>intersection-&gt;union</title>
<path fill="none" stroke="#000000" d="M233.4029,-144.5708C224.2458,-135.2847 212.8501,-123.7285 202.9059,-113.6442"/>
<polygon fill="#000000" stroke="#000000" points="205.1592,-110.9445 195.6456,-106.2817 200.175,-115.8596 205.1592,-110.9445"/>
</g>
<!-- document:1#allowed -->
<g id="node4" class="node">
<title>document:1#allowed</title>
<ellipse fill="none" stroke="#000000" cx="322.5901" cy="-90" rx="92.0586" ry="18"/>
<text text-anchor="middle" x="322.5901" y="-85.8" font-family="Times,serif" font-size="14.00" fill="#000000">document:1#allowed</text>
</g>
<!-- intersection&#45;&gt;document:1#allowed -->
<g id="edge3" class="edge">
<title>intersection-&gt;document:1#allowed</title>
<path fill="none" stroke="#000000" d="M268.0192,-144.5708C276.9074,-135.6827 287.8752,-124.7148 297.6415,-114.9486"/>
<polygon fill="#000000" stroke="#000000" points="300.225,-117.3149 304.8212,-107.7689 295.2752,-112.3651 300.225,-117.3149"/>
</g>
<!-- document:1#owner -->
<g id="node5" class="node">
<title>document:1#owner</title>
<ellipse fill="none" stroke="#000000" cx="85.5901" cy="-18" rx="85.6802" ry="18"/>
<text text-anchor="middle" x="85.5901" y="-13.8" font-family="Times,serif" font-size="14.00" fill="#000000">document:1#owner</text>
</g>
<!-- union&#45;&gt;document:1#owner -->
<g id="edge4" class="edge">
<title>union-&gt;document:1#owner</title>
<path fill="none" stroke="#000000" d="M160.1132,-75.0816C147.5263,-65.4405 130.8732,-52.6849 116.5021,-41.6773"/>
<polygon fill="#000000" stroke="#000000" points="118.4194,-38.7372 108.3523,-35.4349 114.1628,-44.2943 118.4194,-38.7372"/>
</g>
<!-- document:1#editor -->
<g id="node6" class="node">
<title>document:1#editor</title>
<ellipse fill="none" stroke="#000000" cx="273.5901" cy="-18" rx="83.9721" ry="18"/>
<text text-anchor="middle" x="273.5901" y="-13.8" font-family="Times,serif" font-size="14.00" fill="#000000">document:1#editor</text>
</g>
<!-- union&#45;&gt;document:1#editor -->
<g id="edge5" class="edge">
<title>union-&gt;document:1#editor</title>
<path fill="none" stroke="#000000" d="M199.0669,-75.0816C211.6538,-65.4405 228.3069,-52.6849 242.678,-41.6773"/>
<polygon fill="#000000" stroke="#000000" points="245.0173,-44.2943 250.8278,-35.4349 240.7607,-38.7372 245.0173,-44.2943"/>
</g>
</g>
</svg>