<?xml version="1.0" encoding="UTF-8" standalone="no"?>
<!DOCTYPE svg PUBLIC "-//W3C//DTD SVG 1.1//EN"
 "http://www.w3.org/Graphics/SVG/1.1/DTD/svg11.dtd">
<!-- Generated by graphviz version 8.1.0 (20230707.0739)
 -->
<!-- Pages: 1 -->
<svg width="252pt" height="221pt"
 viewBox="0.00 0.00 252.45 221.00" xmlns="http://www.w3.org/2000/svg" xmlns:xlink="http://www.w3.org/1999/xlink">
<g id="graph0" class="graph" transform="scale(1 1) rotate(0) translate(4 217)">
<polygon fill="white" stroke="none" points="-4,4 -4,-217 248.45,-217 248.45,4 -4,4"/>
<!-- document#a -->
<g id="node1" class="node">
<title>document#a</title>
<ellipse fill="none" stroke="black" cx="56.47" cy="-106.5" rx="56.47" ry="18"/>
<text text-anchor="middle" x="56.47" y="-101.45" font-family="Times,serif" font-size="14.00">document#a</text>
</g>
<!-- document#c -->
<g id="node2" class="node">
<title>document#c</title>
<ellipse fill="none" stroke="black" cx="121.47" cy="-195" rx="56.47" ry="18"/>
<text text-anchor="middle" x="121.47" y="-189.95" font-family="Times,serif" font-size="14.00">document#c</text>
</g>
<!-- document#a&#45;&gt;document#c -->
<g id="edge1" class="edge">
<title>document#a&#45;&gt;document#c</title>
<path fill="none" stroke="black" stroke-dasharray="5,2" d="M69,-124.18C78.47,-136.78 91.64,-154.3 102.41,-168.64"/>
<polygon fill="black" stroke="black" points="99.95,-170.19 108.75,-176.08 105.54,-165.98 99.95,-170.19"/>
<text text-anchor="middle" x="97.84" y="-145.7" font-family="Times,serif" font-size="14.00">7</text>
</g>
<!-- user -->
<g id="node3" class="node">
<title>user</title>
<ellipse fill="none" stroke="black" cx="121.47" cy="-18" rx="27" ry="18"/>
<text text-anchor="middle" x="121.47" y="-12.95" font-family="Times,serif" font-size="14.00">user</text>
</g>
<!-- user&#45;&gt;document#a -->
<g id="edge2" class="edge">
<title>user&#45;&gt;document#a</title>
<path fill="none" stroke="black" d="M109.85,-34.46C100.35,-47.1 86.73,-65.22 75.63,-80"/>
<polygon fill="black" stroke="black" points="72.31,-77.6 69.1,-87.69 77.91,-81.8 72.31,-77.6"/>
<text text-anchor="middle" x="97.84" y="-57.2" font-family="Times,serif" font-size="14.00">1</text>
</g>
<!-- document#b -->
<g id="node4" class="node">
<title>document#b</title>
<ellipse fill="none" stroke="black" cx="187.47" cy="-106.5" rx="56.98" ry="18"/>
<text text-anchor="middle" x="187.47" y="-101.45" font-family="Times,serif" font-size="14.00">document#b</text>
</g>
<!-- user&#45;&gt;document#b -->
<g id="edge3" class="edge">
<title>user&#45;&gt;document#b</title>
<path fill="none" stroke="black" d="M133.27,-34.46C142.91,-47.1 156.74,-65.22 168.01,-80"/>
<polygon fill="black" stroke="black" points="165.8,-81.87 174.64,-87.69 171.36,-77.62 165.8,-81.87"/>
<text text-anchor="middle" x="162.84" y="-57.2" font-family="Times,serif" font-size="14.00">3</text>
</g>
<!-- document#b&#45;&gt;document#c -->
<g id="edge4" class="edge">
<title>document#b&#45;&gt;document#c</title>
<path fill="none" stroke="black" stroke-dasharray="5,2" d="M174.74,-124.18C165.13,-136.78 151.76,-154.3 140.82,-168.64"/>
<polygon fill="black" stroke="black" points="137.66,-166 134.38,-176.08 143.23,-170.25 137.66,-166"/>
<text text-anchor="middle" x="162.84" y="-145.7" font-family="Times,serif" font-size="14.00">9</text>
</g>
</g>
</svg>
